<?xml version="1.0" encoding="utf-8"?>
<!-- Generator: Adobe Illustrator 16.0.0, SVG Export Plug-In . SVG Version: 6.00 Build 0)  -->
<!DOCTYPE svg PUBLIC "-//W3C//DTD SVG 1.1//EN" "http://www.w3.org/Graphics/SVG/1.1/DTD/svg11.dtd">
<svg version="1.1" id="Layer_1" xmlns="http://www.w3.org/2000/svg" xmlns:xlink="http://www.w3.org/1999/xlink" x="0px" y="0px"
	 width="887.221px" height="196.338px" viewBox="0 0 887.221 196.338" enable-background="new 0 0 887.221 196.338"
	 xml:space="preserve">
<g>
	<rect x="-63.996" y="118.559" fill="none" width="365" height="70.066"/>
	<text transform="matrix(0.94 0 0 1 12.4824 129.6895)"><tspan x="0" y="0" fill="#989898" font-family="'Montserrat-Bold'" font-size="15.0019">Um instrumento participativo</tspan><tspan x="22.705" y="18.002" fill="#989898" font-family="'Montserrat-Bold'" font-size="15.0019">de planejamento para a</tspan><tspan x="32.793" y="36.004" fill="#989898" font-family="'Montserrat-Bold'" font-size="15.0019">Cidade de São Paulo.</tspan><tspan x="67.237" y="58.004" fill="#989898" font-family="'Montserrat-Regular'" font-size="15.0019">SAIBA MAIS</tspan></text>
	<text transform="matrix(0.94 0 0 1 40.355 104.5581)" fill="#989898" font-family="'Montserrat-Bold'" font-size="24.003">O PROGRAMA</text>
	<rect x="252.442" y="118.559" fill="none" width="365" height="70.066"/>
	<text transform="matrix(0.94 0 0 1 353.8687 131.1719)"><tspan x="0" y="0" fill="#989898" font-family="'Montserrat-Bold'" font-size="17">12 metas concluídas</tspan><tspan x="-25.551" y="20" fill="#989898" font-family="'Montserrat-Bold'" font-size="17">100 metas em andamento</tspan><tspan x="-8.151" y="40" fill="#989898" font-family="'Montserrat-Bold'" font-size="17">11 metas não iniciadas</tspan></text>
	<text transform="matrix(0.94 0 0 1 316.4058 104.5581)" fill="#989898" font-family="'Montserrat-Bold'" font-size="24.003">DE OLHO NAS METAS</text>
	<rect x="569.125" y="118.559" fill="none" width="365" height="70.066"/>
	<text transform="matrix(0.94 0 0 1 623.6758 129.6895)"><tspan x="0" y="0" fill="#989898" font-family="'Montserrat-Bold'" font-size="15.0019">O uso de critérios claros e objetivos</tspan><tspan x="44.532" y="18.002" fill="#989898" font-family="'Montserrat-Bold'" font-size="15.0019">garantem transparência</tspan><tspan x="11.814" y="36.004" fill="#989898" font-family="'Montserrat-Bold'" font-size="15.0019">no acompanhamento das metas.</tspan><tspan x="97.803" y="58.004" fill="#989898" font-family="'Montserrat-Regular'" font-size="15.0019">ENTENDA</tspan></text>
	<text transform="matrix(0.94 0 0 1 666.8438 104.5581)" fill="#989898" font-family="'Montserrat-Bold'" font-size="24.003">METODOLOGIA</text>
	<g>
		<g>
			<g>
				
					<rect x="347.833" y="21.667" fill-rule="evenodd" clip-rule="evenodd" fill="#FFFFFF" stroke="#CCCBCB" stroke-miterlimit="10" width="64.637" height="36.697"/>
				<rect x="352.116" y="21.667" fill-rule="evenodd" clip-rule="evenodd" fill="#EA2E52" width="12.365" height="4.567"/>
			</g>
			<g>
				<path fill="#EA2E52" d="M377.008,33.198c0-1.247-1.014-2.257-2.254-2.257H354.5c-1.246,0-2.257,1.011-2.257,2.257v16.875
					c0,1.245,1.011,2.257,2.257,2.257h20.255c1.24,0,2.254-1.012,2.254-2.257V33.198z M374.754,48.949
					c0,0.618-0.508,1.124-1.126,1.124h-18.004c-0.616,0-1.125-0.506-1.125-1.124V34.323c0-0.619,0.509-1.125,1.125-1.125h18.004
					c0.618,0,1.126,0.506,1.126,1.125V48.949z"/>
				<g>
					<path fill="#EA2E52" d="M369.125,48.385c-0.005,0-0.01,0-0.015,0c-0.274-0.003-0.501-0.21-0.539-0.482l-1.405-9.827
						l-0.896,2.092c-0.064,0.149-0.188,0.263-0.341,0.314l-1.468,0.489l-1.583,3.166c-0.102,0.209-0.322,0.332-0.561,0.308
						c-0.229-0.024-0.422-0.188-0.485-0.409l-1.262-4.636l-1.053,2.459c-0.086,0.206-0.292,0.336-0.518,0.336h-3.376
						c-0.311,0-0.563-0.248-0.563-0.559c0-0.313,0.253-0.562,0.563-0.562h3.006l1.541-3.599c0.096-0.22,0.313-0.356,0.556-0.34
						c0.242,0.017,0.439,0.185,0.503,0.416l1.299,4.765l1.032-2.059c0.065-0.131,0.185-0.232,0.325-0.279l1.448-0.485l1.587-3.703
						c0.099-0.234,0.337-0.371,0.592-0.337c0.249,0.034,0.447,0.226,0.481,0.479l1.226,8.563l0.481-2.404
						c0.051-0.267,0.281-0.454,0.549-0.454h3.378c0.31,0,0.561,0.25,0.561,0.559c0,0.313-0.251,0.567-0.561,0.567h-2.915
						l-1.033,5.172C369.624,48.198,369.395,48.385,369.125,48.385L369.125,48.385z"/>
				</g>
			</g>
			
				<line fill="none" stroke="#EA2E52" stroke-width="2" stroke-linecap="round" stroke-linejoin="round" stroke-miterlimit="10" x1="383.892" y1="33.036" x2="406.032" y2="33.036"/>
			
				<line fill="none" stroke="#EA2E52" stroke-width="2" stroke-linecap="round" stroke-linejoin="round" stroke-miterlimit="10" x1="383.892" y1="41.605" x2="406.032" y2="41.605"/>
			
				<line fill="none" stroke="#EA2E52" stroke-width="2" stroke-linecap="round" stroke-linejoin="round" stroke-miterlimit="10" x1="383.892" y1="50.174" x2="406.032" y2="50.174"/>
		</g>
		<g>
			<g>
				
					<rect x="408.003" y="9.347" fill-rule="evenodd" clip-rule="evenodd" fill="#FFFFFF" stroke="#CCCBCB" stroke-miterlimit="10" width="64.635" height="36.696"/>
				<rect x="412.287" y="9.347" fill-rule="evenodd" clip-rule="evenodd" fill="#96C94A" width="12.361" height="4.568"/>
			</g>
			<g>
				<path fill="#96C94A" d="M421.15,22.937c-3.467,1.14-5.97,4.399-5.97,8.246c0,4.798,3.891,8.687,8.689,8.687
					c2.875,0,5.414-1.402,6.994-3.55l-7.718-4.412L421.15,22.937z"/>
				<path fill="#96C94A" d="M428.934,19.324c-1.043-0.395-2.174-0.623-3.357-0.623c-1.042,0-2.041,0.174-2.98,0.48l2.187,9.83
					L428.934,19.324z"/>
				<path fill="#96C94A" d="M430.379,21.664l-4.34,9.762l8.565,4.894c1.176-1.597,1.877-3.567,1.877-5.699
					C436.48,26.545,433.951,23.07,430.379,21.664z"/>
			</g>
			
				<line fill="none" stroke="#96C94A" stroke-width="2" stroke-linecap="round" stroke-linejoin="round" stroke-miterlimit="10" x1="444.861" y1="20.718" x2="466.998" y2="20.718"/>
			
				<line fill="none" stroke="#96C94A" stroke-width="2" stroke-linecap="round" stroke-linejoin="round" stroke-miterlimit="10" x1="444.861" y1="29.286" x2="466.998" y2="29.286"/>
			
				<line fill="none" stroke="#96C94A" stroke-width="2" stroke-linecap="round" stroke-linejoin="round" stroke-miterlimit="10" x1="444.861" y1="37.854" x2="466.998" y2="37.854"/>
		</g>
		<g>
			<g>
				
					<rect x="457.416" y="25.34" fill-rule="evenodd" clip-rule="evenodd" fill="#FFFFFF" stroke="#CCCBCB" stroke-miterlimit="10" width="64.635" height="36.695"/>
				<rect x="461.699" y="25.34" fill-rule="evenodd" clip-rule="evenodd" fill="#29BECF" width="12.363" height="4.565"/>
			</g>
			<path fill-rule="evenodd" clip-rule="evenodd" fill="#29BECF" d="M463.445,45.33l2.479,2.367l4.932-4.759l4.957,4.864
				l7.387-7.095l2.369,2.342v-6.753h-6.973l2.123,2.022l-4.877,4.731l-5.012-4.813L463.445,45.33z M460.789,53.112v1.77h26.549
				v-1.77H460.789z"/>
			
				<line fill="none" stroke="#29BECF" stroke-width="2" stroke-linecap="round" stroke-linejoin="round" stroke-miterlimit="10" x1="493.488" y1="36.708" x2="515.625" y2="36.708"/>
			
				<line fill="none" stroke="#29BECF" stroke-width="2" stroke-linecap="round" stroke-linejoin="round" stroke-miterlimit="10" x1="493.488" y1="45.275" x2="515.625" y2="45.275"/>
			
				<line fill="none" stroke="#29BECF" stroke-width="2" stroke-linecap="round" stroke-linejoin="round" stroke-miterlimit="10" x1="493.488" y1="53.845" x2="515.625" y2="53.845"/>
		</g>
	</g>
	<g>
		<path fill="#CCCBCB" d="M761.607,43.887l-0.928-5.847l-6.6-0.407l-1.877-3.007l2.986-5.525l-5.176-3.704l-4.732,4.287
			l-3.078-0.759l-2.49-5.954l-6.086,0.956l-0.438,6.333l-2.371,1.534l-6.625-2.269L720.965,34l4.178,5.494l-0.953,2.876l-5.5,2.417
			l0.91,5.767l6.377,0.712l1.818,3.175l-2.301,5.417l4.846,3.326l5-4.089l2.547,1.04l2.406,5.689l6.164-1.125l0.412-6.328
			l2.855-1.38l5.607,2.232l3.633-4.851l-4.188-5.369l0.832-2.856L761.607,43.887z M741.246,51.32
			c-3.846,0.604-7.443-2.018-8.047-5.851c-0.598-3.844,2.02-7.441,5.861-8.043c3.836-0.602,7.441,2.023,8.045,5.857
			C747.705,47.116,745.086,50.719,741.246,51.32z"/>
		<path fill="#CCCBCB" d="M783.539,23.81l-1.756-3.776l-4.541,1.006l-1.852-1.671l0.949-4.309l-4.219-1.5l-2.371,3.81l-2.227,0.08
			l-2.838-3.537l-3.924,1.824l0.924,4.366l-1.287,1.499l-4.922-0.252l-1.311,3.647l3.885,2.905l-0.088,2.123l-3.252,2.697
			l1.74,3.726l4.445-0.757l1.846,1.795l-0.508,4.103l3.92,1.312l2.582-3.73l1.922,0.205l2.734,3.382l3.955-1.957l-0.953-4.353
			l1.658-1.486l4.219,0.424l1.514-3.983l-3.865-2.819l0.006-2.089L783.539,23.81z M771.223,32.772
			c-2.479,1.15-5.416,0.076-6.574-2.399c-1.15-2.477-0.07-5.412,2.402-6.563c2.48-1.151,5.418-0.081,6.574,2.398
			C774.773,28.68,773.701,31.625,771.223,32.772z"/>
	</g>
	<g>
		<path fill="#CCCBCB" d="M103.668,31.452c0.452-0.458,1.06-0.706,1.703-0.706c0.645,0,1.251,0.25,1.707,0.706
			c0.393,0.389,2.3,2.295,4.244,4.238c0.411,0.412,0.682,0.539,0.795,0.577c0.115-0.168,0.323-0.674,0.323-1.701V11.956
			c0-2.338-1.903-4.243-4.24-4.243h-8.483c-1.133,0-1.948,0.092-2.493,0.192c0.838,1.951,1.082,5.151,1.082,6.88v19.781
			c0,1.027,0.204,1.533,0.319,1.701c0.111-0.039,0.385-0.165,0.8-0.579l2.073-2.072L103.668,31.452z"/>
		<path fill="#CCCBCB" d="M148.915,9.36c-0.448-0.969-1.425-1.648-2.56-1.648h-16.959c-1.551,0-4.005,0.476-5.45,1.054l-1.817,0.728
			c-0.718,0.287-1.671,0.433-2.623,0.433c-0.952,0-1.902-0.146-2.625-0.433l-1.815-0.728c-0.762-0.306-1.804-0.578-2.847-0.767
			c0.863,0.87,1.418,2.028,1.566,3.308c0.078,0.026,0.159,0.056,0.23,0.082l1.814,0.728c0.76,0.303,1.544,0.46,2.263,0.544v45.14
			c-0.056-0.019-0.119-0.038-0.163-0.054l-1.815-0.726c-1.785-0.715-4.581-1.254-6.502-1.254H92.652V10.541h3.852
			c-0.255-1.356-0.623-2.421-1.026-2.829h-2.826c-1.129,0-2.107,0.679-2.559,1.648c-0.992,0.44-1.695,1.434-1.695,2.595v50.877
			c0,1.568,1.274,2.84,2.84,2.84h15.548c3.474,0,7.965,0.712,10.231,1.617c0.597,0.238,1.526,0.381,2.489,0.381
			c0.959,0,1.889-0.143,2.489-0.381c2.267-0.904,6.757-1.617,10.23-1.617h15.546c1.567,0,2.84-1.272,2.84-2.84V11.956
			C150.611,10.794,149.911,9.801,148.915,9.36z M146.355,55.767h-16.959c-1.921,0-4.712,0.539-6.501,1.255l-1.814,0.724
			c-0.045,0.017-0.104,0.035-0.165,0.054v-45.14c0.723-0.083,1.504-0.241,2.264-0.546l1.817-0.726
			c1.108-0.444,3.204-0.848,4.399-0.848h16.959V55.767z"/>
	</g>
</g>
</svg>
