<svg xmlns="http://www.w3.org/2000/svg" width="254.545" height="170.058"><rect x="-58.641" y="109.211" width="365" height="70.067" fill="none"/><text transform="matrix(.94 0 0 1 42.786 121.825)"><tspan x="0" y="0" fill="#989898" font-family="'Montserrat-Bold'" font-size="17">12 metas concluídas</tspan><tspan x="-25.551" y="20" fill="#989898" font-family="'Montserrat-Bold'" font-size="17">100 metas em andamento</tspan><tspan x="-8.151" y="40" fill="#989898" font-family="'Montserrat-Bold'" font-size="17">11 metas não iniciadas</tspan></text><text transform="matrix(.94 0 0 1 5.323 95.211)" fill="#989898" font-family="'Montserrat-Bold'" font-size="24.003">DE OLHO NAS METAS</text><g fill-rule="evenodd" clip-rule="evenodd"><rect x="36.751" y="12.319" fill="#fff" stroke="#CCCBCB" stroke-miterlimit="10" width="64.637" height="36.697"/><rect x="41.033" y="12.319" fill="#EA2E52" width="12.365" height="4.567"/></g><path fill="#EA2E52" d="M65.926 23.851c0-1.247-1.014-2.257-2.254-2.257h-20.255c-1.246 0-2.257 1.011-2.257 2.257v16.875c0 1.245 1.011 2.257 2.257 2.257h20.255c1.24 0 2.254-1.012 2.254-2.257v-16.875zm-2.254 15.751c0 .618-.508 1.124-1.126 1.124h-18.004c-.616 0-1.125-.506-1.125-1.124v-14.626c0-.619.509-1.125 1.125-1.125h18.004c.618 0 1.126.506 1.126 1.125v14.626z"/><path fill="#EA2E52" d="M58.042 39.038h-.015c-.274-.003-.501-.21-.539-.482l-1.405-9.827-.896 2.092c-.064.149-.188.263-.341.314l-1.468.489-1.583 3.166c-.102.209-.322.332-.561.308-.229-.024-.422-.188-.485-.409l-1.262-4.636-1.053 2.459c-.086.206-.292.336-.518.336h-3.376c-.311 0-.563-.248-.563-.559 0-.313.253-.562.563-.562h3.006l1.541-3.599c.096-.22.313-.356.556-.34.242.017.439.185.503.416l1.299 4.765 1.032-2.059c.065-.131.185-.232.325-.279l1.448-.485 1.587-3.703c.099-.234.337-.371.592-.337.249.034.447.226.481.479l1.226 8.563.481-2.404c.051-.267.281-.454.549-.454h3.378c.31 0 .561.25.561.559 0 .313-.251.567-.561.567h-2.915l-1.033 5.172c-.055.263-.284.45-.554.45z"/><line stroke="#EA2E52" stroke-width="2" stroke-linecap="round" stroke-linejoin="round" stroke-miterlimit="10" x1="72.81" y1="23.689" x2="94.949" y2="23.689" fill="none"/><line stroke="#EA2E52" stroke-width="2" stroke-linecap="round" stroke-linejoin="round" stroke-miterlimit="10" x1="72.81" y1="32.258" x2="94.949" y2="32.258" fill="none"/><line stroke="#EA2E52" stroke-width="2" stroke-linecap="round" stroke-linejoin="round" stroke-miterlimit="10" x1="72.81" y1="40.827" x2="94.949" y2="40.827" fill="none"/><g fill-rule="evenodd" clip-rule="evenodd"><rect x="96.921" fill="#fff" stroke="#CCCBCB" stroke-miterlimit="10" width="64.635" height="36.696"/><rect x="101.204" fill="#96C94A" width="12.361" height="4.568"/></g><g fill="#96C94A"><path d="M110.067 13.59c-3.467 1.14-5.97 4.399-5.97 8.246 0 4.798 3.891 8.687 8.689 8.687 2.874 0 5.413-1.402 6.993-3.55l-7.718-4.412-1.994-8.971zM117.852 9.977c-1.044-.395-2.174-.623-3.357-.623-1.042 0-2.041.174-2.98.48l2.187 9.83 4.15-9.687zM119.296 12.316l-4.34 9.762 8.565 4.894c1.176-1.597 1.877-3.567 1.877-5.699 0-4.075-2.53-7.55-6.102-8.957z"/></g><line stroke="#96C94A" stroke-width="2" stroke-linecap="round" stroke-linejoin="round" stroke-miterlimit="10" x1="133.779" y1="11.371" x2="155.916" y2="11.371" fill="none"/><line stroke="#96C94A" stroke-width="2" stroke-linecap="round" stroke-linejoin="round" stroke-miterlimit="10" x1="133.779" y1="19.939" x2="155.916" y2="19.939" fill="none"/><line stroke="#96C94A" stroke-width="2" stroke-linecap="round" stroke-linejoin="round" stroke-miterlimit="10" x1="133.779" y1="28.507" x2="155.916" y2="28.507" fill="none"/><g fill-rule="evenodd" clip-rule="evenodd"><rect x="146.334" y="15.993" fill="#fff" stroke="#CCCBCB" stroke-miterlimit="10" width="64.634" height="36.695"/><rect x="150.617" y="15.993" fill="#29BECF" width="12.362" height="4.565"/></g><path fill-rule="evenodd" clip-rule="evenodd" fill="#29BECF" d="M152.363 35.982l2.478 2.367 4.932-4.759 4.958 4.864 7.386-7.095 2.37 2.342v-6.753h-6.973l2.123 2.022-4.877 4.731-5.012-4.813-7.385 7.094zm-2.657 7.783v1.77h26.55v-1.77h-26.55z"/><line stroke="#29BECF" stroke-width="2" stroke-linecap="round" stroke-linejoin="round" stroke-miterlimit="10" x1="182.405" y1="27.361" x2="204.542" y2="27.361" fill="none"/><line stroke="#29BECF" stroke-width="2" stroke-linecap="round" stroke-linejoin="round" stroke-miterlimit="10" x1="182.405" y1="35.928" x2="204.542" y2="35.928" fill="none"/><line stroke="#29BECF" stroke-width="2" stroke-linecap="round" stroke-linejoin="round" stroke-miterlimit="10" x1="182.405" y1="44.498" x2="204.542" y2="44.498" fill="none"/></svg>