<?xml version="1.0" encoding="utf-8"?>
<!-- Generator: Adobe Illustrator 16.0.0, SVG Export Plug-In . SVG Version: 6.00 Build 0)  -->
<!DOCTYPE svg PUBLIC "-//W3C//DTD SVG 1.1//EN" "http://www.w3.org/Graphics/SVG/1.1/DTD/svg11.dtd">
<svg version="1.1" id="Layer_1" xmlns="http://www.w3.org/2000/svg" xmlns:xlink="http://www.w3.org/1999/xlink" x="0px" y="0px"
	 width="224.675px" height="203.896px" viewBox="0 0 224.675 203.896" enable-background="new 0 0 224.675 203.896"
	 xml:space="preserve">
<rect x="-69.766" y="124.465" fill="none" width="365" height="70.067"/>
<text transform="matrix(0.94 0 0 1 6.7119 135.5972)"><tspan x="0" y="0" fill="#989898" font-family="'Montserrat-Bold'" font-size="15.0019">Um instrumento participativo</tspan><tspan x="22.705" y="18.002" fill="#989898" font-family="'Montserrat-Bold'" font-size="15.0019">de planejamento para a</tspan><tspan x="32.793" y="36.004" fill="#989898" font-family="'Montserrat-Bold'" font-size="15.0019">Cidade de São Paulo.</tspan><tspan x="67.237" y="58.004" fill="#989898" font-family="'Montserrat-Regular'" font-size="15.0019">SAIBA MAIS</tspan></text>
<text transform="matrix(0.94 0 0 1 34.5845 110.4653)" fill="#989898" font-family="'Montserrat-Bold'" font-size="24.003">O PROGRAMA</text>
<g>
	<path fill="#CCCBCB" d="M97.898,37.359c0.452-0.458,1.06-0.706,1.703-0.706c0.645,0,1.251,0.25,1.707,0.706
		c0.393,0.389,2.3,2.295,4.244,4.238c0.411,0.412,0.682,0.539,0.795,0.577c0.115-0.168,0.323-0.674,0.323-1.701V17.863
		c0-2.338-1.903-4.243-4.24-4.243h-8.483c-1.133,0-1.948,0.092-2.493,0.192c0.838,1.951,1.082,5.151,1.082,6.88v19.781
		c0,1.027,0.204,1.533,0.319,1.701c0.111-0.039,0.385-0.165,0.8-0.579l2.073-2.072L97.898,37.359z"/>
	<path fill="#CCCBCB" d="M143.144,15.268c-0.447-0.969-1.425-1.648-2.559-1.648h-16.96c-1.551,0-4.005,0.476-5.45,1.054
		l-1.817,0.728c-0.718,0.287-1.671,0.433-2.622,0.433c-0.953,0-1.903-0.146-2.625-0.433l-1.815-0.728
		c-0.762-0.306-1.804-0.578-2.847-0.767c0.863,0.87,1.418,2.028,1.566,3.308c0.078,0.026,0.159,0.056,0.23,0.082l1.814,0.728
		c0.76,0.303,1.544,0.46,2.263,0.544v45.14c-0.056-0.019-0.119-0.038-0.163-0.054l-1.815-0.726
		c-1.785-0.715-4.581-1.254-6.502-1.254H86.881V16.448h3.852c-0.255-1.356-0.623-2.421-1.026-2.829h-2.826
		c-1.129,0-2.107,0.679-2.559,1.648c-0.992,0.44-1.695,1.434-1.695,2.595V68.74c0,1.568,1.274,2.84,2.84,2.84h15.548
		c3.474,0,7.965,0.712,10.231,1.617c0.597,0.238,1.526,0.381,2.489,0.381c0.959,0,1.889-0.143,2.488-0.381
		c2.268-0.904,6.758-1.617,10.23-1.617H142c1.567,0,2.841-1.272,2.841-2.84V17.863C144.84,16.702,144.14,15.708,143.144,15.268z
		 M140.585,61.674h-16.96c-1.921,0-4.712,0.539-6.501,1.255l-1.814,0.724c-0.045,0.017-0.104,0.035-0.164,0.054v-45.14
		c0.723-0.083,1.504-0.241,2.264-0.546l1.816-0.726c1.108-0.444,3.205-0.848,4.399-0.848h16.96V61.674z"/>
</g>
</svg>
