<?xml version="1.0" encoding="utf-8"?>
<!-- Generator: Adobe Illustrator 16.0.0, SVG Export Plug-In . SVG Version: 6.00 Build 0)  -->
<!DOCTYPE svg PUBLIC "-//W3C//DTD SVG 1.1//EN" "http://www.w3.org/Graphics/SVG/1.1/DTD/svg11.dtd">
<svg version="1.1" id="Layer_1" xmlns="http://www.w3.org/2000/svg" xmlns:xlink="http://www.w3.org/1999/xlink" x="0px" y="0px"
	 width="249.351px" height="192.338px" viewBox="0 0 249.351 192.338" enable-background="new 0 0 249.351 192.338"
	 xml:space="preserve">
<rect x="-57.342" y="122.271" fill="none" width="365" height="70.067"/>
<text transform="matrix(0.94 0 0 1 44.085 134.8848)"><tspan x="0" y="0" fill="#989898" font-family="'Montserrat-Bold'" font-size="17">12 metas concluídas</tspan><tspan x="-25.551" y="20" fill="#989898" font-family="'Montserrat-Bold'" font-size="17">100 metas em andamento</tspan><tspan x="-8.151" y="40" fill="#989898" font-family="'Montserrat-Bold'" font-size="17">11 metas não iniciadas</tspan></text>
<text transform="matrix(0.94 0 0 1 6.6221 108.2705)" fill="#989898" font-family="'Montserrat-Bold'" font-size="24.003">DE OLHO NAS METAS</text>
<g>
	<g>
		<g>
			
				<rect x="38.05" y="25.379" fill-rule="evenodd" clip-rule="evenodd" fill="#FFFFFF" stroke="#CCCBCB" stroke-miterlimit="10" width="64.637" height="36.697"/>
			<rect x="42.332" y="25.379" fill-rule="evenodd" clip-rule="evenodd" fill="#EA2E52" width="12.365" height="4.567"/>
		</g>
		<g>
			<path fill="#EA2E52" d="M67.225,36.91c0-1.247-1.014-2.257-2.254-2.257H44.716c-1.246,0-2.257,1.011-2.257,2.257v16.875
				c0,1.245,1.011,2.257,2.257,2.257h20.255c1.24,0,2.254-1.012,2.254-2.257V36.91z M64.971,52.662c0,0.618-0.508,1.124-1.126,1.124
				H45.841c-0.616,0-1.125-0.506-1.125-1.124V38.036c0-0.619,0.509-1.125,1.125-1.125h18.004c0.618,0,1.126,0.506,1.126,1.125
				V52.662z"/>
			<g>
				<path fill="#EA2E52" d="M59.341,52.098c-0.005,0-0.01,0-0.015,0c-0.274-0.003-0.501-0.21-0.539-0.482l-1.405-9.827l-0.896,2.092
					c-0.064,0.149-0.188,0.263-0.341,0.314l-1.468,0.489l-1.583,3.166c-0.102,0.209-0.322,0.332-0.561,0.308
					c-0.229-0.024-0.422-0.188-0.485-0.409l-1.262-4.636l-1.053,2.459c-0.086,0.206-0.292,0.336-0.518,0.336h-3.376
					c-0.311,0-0.563-0.248-0.563-0.559c0-0.313,0.253-0.562,0.563-0.562h3.006l1.541-3.599c0.096-0.22,0.313-0.356,0.556-0.34
					c0.242,0.017,0.439,0.185,0.503,0.416l1.299,4.765l1.032-2.059c0.065-0.131,0.185-0.232,0.325-0.279l1.448-0.485l1.587-3.703
					c0.099-0.234,0.337-0.371,0.592-0.337c0.249,0.034,0.447,0.226,0.481,0.479l1.226,8.563l0.481-2.404
					c0.051-0.267,0.281-0.454,0.549-0.454h3.378c0.31,0,0.561,0.25,0.561,0.559c0,0.313-0.251,0.567-0.561,0.567H60.93l-1.033,5.172
					C59.84,51.91,59.611,52.098,59.341,52.098L59.341,52.098z"/>
			</g>
		</g>
		
			<line fill="none" stroke="#EA2E52" stroke-width="2" stroke-linecap="round" stroke-linejoin="round" stroke-miterlimit="10" x1="74.108" y1="36.749" x2="96.248" y2="36.749"/>
		
			<line fill="none" stroke="#EA2E52" stroke-width="2" stroke-linecap="round" stroke-linejoin="round" stroke-miterlimit="10" x1="74.108" y1="45.317" x2="96.248" y2="45.317"/>
		
			<line fill="none" stroke="#EA2E52" stroke-width="2" stroke-linecap="round" stroke-linejoin="round" stroke-miterlimit="10" x1="74.108" y1="53.887" x2="96.248" y2="53.887"/>
	</g>
	<g>
		<g>
			
				<rect x="98.22" y="13.06" fill-rule="evenodd" clip-rule="evenodd" fill="#FFFFFF" stroke="#CCCBCB" stroke-miterlimit="10" width="64.635" height="36.696"/>
			<rect x="102.503" y="13.06" fill-rule="evenodd" clip-rule="evenodd" fill="#96C94A" width="12.361" height="4.568"/>
		</g>
		<g>
			<path fill="#96C94A" d="M111.366,26.649c-3.467,1.14-5.97,4.399-5.97,8.246c0,4.798,3.891,8.687,8.689,8.687
				c2.874,0,5.413-1.402,6.993-3.55l-7.718-4.412L111.366,26.649z"/>
			<path fill="#96C94A" d="M119.15,23.036c-1.044-0.395-2.174-0.623-3.357-0.623c-1.042,0-2.041,0.174-2.98,0.48l2.187,9.83
				L119.15,23.036z"/>
			<path fill="#96C94A" d="M120.595,25.376l-4.34,9.762l8.565,4.894c1.176-1.597,1.877-3.567,1.877-5.699
				C126.697,30.258,124.167,26.782,120.595,25.376z"/>
		</g>
		
			<line fill="none" stroke="#96C94A" stroke-width="2" stroke-linecap="round" stroke-linejoin="round" stroke-miterlimit="10" x1="135.078" y1="24.43" x2="157.215" y2="24.43"/>
		
			<line fill="none" stroke="#96C94A" stroke-width="2" stroke-linecap="round" stroke-linejoin="round" stroke-miterlimit="10" x1="135.078" y1="32.999" x2="157.215" y2="32.999"/>
		
			<line fill="none" stroke="#96C94A" stroke-width="2" stroke-linecap="round" stroke-linejoin="round" stroke-miterlimit="10" x1="135.078" y1="41.566" x2="157.215" y2="41.566"/>
	</g>
	<g>
		<g>
			
				<rect x="147.633" y="29.053" fill-rule="evenodd" clip-rule="evenodd" fill="#FFFFFF" stroke="#CCCBCB" stroke-miterlimit="10" width="64.634" height="36.695"/>
			<rect x="151.916" y="29.053" fill-rule="evenodd" clip-rule="evenodd" fill="#29BECF" width="12.362" height="4.565"/>
		</g>
		<path fill-rule="evenodd" clip-rule="evenodd" fill="#29BECF" d="M153.662,49.042l2.478,2.367l4.932-4.759l4.958,4.864
			l7.386-7.095l2.37,2.342v-6.753h-6.973l2.123,2.022l-4.877,4.731l-5.012-4.813L153.662,49.042z M151.005,56.824v1.77h26.55v-1.77
			H151.005z"/>
		
			<line fill="none" stroke="#29BECF" stroke-width="2" stroke-linecap="round" stroke-linejoin="round" stroke-miterlimit="10" x1="183.704" y1="40.42" x2="205.841" y2="40.42"/>
		
			<line fill="none" stroke="#29BECF" stroke-width="2" stroke-linecap="round" stroke-linejoin="round" stroke-miterlimit="10" x1="183.704" y1="48.988" x2="205.841" y2="48.988"/>
		
			<line fill="none" stroke="#29BECF" stroke-width="2" stroke-linecap="round" stroke-linejoin="round" stroke-miterlimit="10" x1="183.704" y1="57.557" x2="205.841" y2="57.557"/>
	</g>
</g>
</svg>
