<?xml version="1.0" encoding="utf-8"?>
<!-- Generator: Adobe Illustrator 16.0.0, SVG Export Plug-In . SVG Version: 6.00 Build 0)  -->
<!DOCTYPE svg PUBLIC "-//W3C//DTD SVG 1.1//EN" "http://www.w3.org/Graphics/SVG/1.1/DTD/svg11.dtd">
<svg version="1.1" id="Layer_1" xmlns="http://www.w3.org/2000/svg" xmlns:xlink="http://www.w3.org/1999/xlink" x="0px" y="0px"
	 width="270.13px" height="180.936px" viewBox="0 0 270.13 180.936" enable-background="new 0 0 270.13 180.936"
	 xml:space="preserve">
<rect x="-45.97" y="105.998" fill="none" width="365" height="70.067"/>
<text transform="matrix(0.94 0 0 1 8.5811 117.1299)"><tspan x="0" y="0" fill="#989898" font-family="'Montserrat-Bold'" font-size="15.0019">O uso de critérios claros e objetivos</tspan><tspan x="44.532" y="18.002" fill="#989898" font-family="'Montserrat-Bold'" font-size="15.0019">garantem transparência</tspan><tspan x="11.813" y="36.004" fill="#989898" font-family="'Montserrat-Bold'" font-size="15.0019">no acompanhamento das metas.</tspan><tspan x="97.802" y="58.004" fill="#989898" font-family="'Montserrat-Regular'" font-size="15.0019">ENTENDA</tspan></text>
<text transform="matrix(0.94 0 0 1 51.748 91.998)" fill="#989898" font-family="'Montserrat-Bold'" font-size="24.003">METODOLOGIA</text>
<g>
	<path fill="#CCCBCB" d="M146.512,31.327l-0.928-5.847l-6.6-0.407l-1.876-3.007l2.986-5.525l-5.176-3.704l-4.733,4.287l-3.077-0.759
		l-2.491-5.954l-6.086,0.956l-0.438,6.333l-2.37,1.534l-6.626-2.269l-3.229,4.475l4.179,5.494l-0.953,2.876l-5.501,2.417
		l0.911,5.767l6.376,0.712l1.818,3.175l-2.3,5.417l4.846,3.326l4.999-4.089l2.547,1.04l2.407,5.689l6.164-1.125l0.411-6.328
		l2.856-1.38l5.606,2.232l3.634-4.851l-4.188-5.369l0.833-2.856L146.512,31.327z M126.151,38.76
		c-3.846,0.604-7.443-2.018-8.048-5.851c-0.597-3.844,2.021-7.441,5.861-8.043c3.837-0.602,7.441,2.023,8.046,5.857
		C132.61,34.556,129.99,38.159,126.151,38.76z"/>
	<path fill="#CCCBCB" d="M168.444,11.25l-1.757-3.776l-4.54,1.006l-1.853-1.671l0.95-4.309L157.026,1l-2.372,3.81l-2.226,0.08
		l-2.838-3.537l-3.924,1.824l0.923,4.366l-1.287,1.499l-4.921-0.252l-1.311,3.647l3.884,2.905l-0.088,2.123l-3.251,2.697
		l1.739,3.726l4.445-0.757l1.847,1.795l-0.508,4.103l3.919,1.312l2.583-3.73l1.922,0.205l2.733,3.382l3.955-1.957l-0.953-4.353
		l1.658-1.486l4.22,0.424l1.514-3.983l-3.866-2.819l0.007-2.089L168.444,11.25z M156.127,20.212
		c-2.479,1.15-5.415,0.076-6.573-2.399c-1.151-2.477-0.071-5.412,2.401-6.563c2.48-1.151,5.419-0.081,6.574,2.398
		C159.679,16.12,158.605,19.064,156.127,20.212z"/>
</g>
</svg>
