<svg xmlns="http://www.w3.org/2000/svg" width="270.13" height="180.936"><rect x="-45.97" y="105.998" width="365" height="70.067" fill="none"/><text transform="matrix(.94 0 0 1 8.581 117.13)"><tspan x="0" y="0" fill="#989898" font-family="'Montserrat-Bold'" font-size="15.002">O uso de critérios claros e objetivos</tspan><tspan x="44.532" y="18.002" fill="#989898" font-family="'Montserrat-Bold'" font-size="15.002">garantem transparência</tspan><tspan x="11.813" y="36.004" fill="#989898" font-family="'Montserrat-Bold'" font-size="15.002">no acompanhamento das metas.</tspan><tspan x="97.802" y="58.004" fill="#989898" font-family="'Montserrat-Regular'" font-size="15.002">ENTENDA</tspan></text><text transform="matrix(.94 0 0 1 51.748 91.998)" fill="#989898" font-family="'Montserrat-Bold'" font-size="24.003">METODOLOGIA</text><g fill="#CCCBCB"><path d="M146.512 31.327l-.928-5.847-6.6-.407-1.876-3.007 2.986-5.525-5.176-3.704-4.733 4.287-3.077-.759-2.491-5.954-6.086.956-.438 6.333-2.37 1.534-6.626-2.269-3.229 4.475 4.179 5.494-.953 2.876-5.501 2.417.911 5.767 6.376.712 1.818 3.175-2.3 5.417 4.846 3.326 4.999-4.089 2.547 1.04 2.407 5.689 6.164-1.125.411-6.328 2.856-1.38 5.606 2.232 3.634-4.851-4.188-5.369.833-2.856 5.999-2.26zm-20.361 7.433c-3.846.604-7.443-2.018-8.048-5.851-.597-3.844 2.021-7.441 5.861-8.043 3.837-.602 7.441 2.023 8.046 5.857.6 3.833-2.02 7.436-5.859 8.037zM168.444 11.25l-1.757-3.776-4.54 1.006-1.853-1.671.95-4.309-4.218-1.5-2.372 3.81-2.226.08-2.838-3.537-3.924 1.824.923 4.366-1.287 1.499-4.921-.252-1.311 3.647 3.884 2.905-.088 2.123-3.251 2.697 1.739 3.726 4.445-.757 1.847 1.795-.508 4.103 3.919 1.312 2.583-3.73 1.922.205 2.733 3.382 3.955-1.957-.953-4.353 1.658-1.486 4.22.424 1.514-3.983-3.866-2.819.007-2.089 3.614-2.685zm-12.317 8.962c-2.479 1.15-5.415.076-6.573-2.399-1.151-2.477-.071-5.412 2.401-6.563 2.48-1.151 5.419-.081 6.574 2.398 1.15 2.472.076 5.416-2.402 6.564z"/></g></svg>