<svg xmlns="http://www.w3.org/2000/svg" width="224.675" height="203.896"><rect x="-69.766" y="124.465" width="365" height="70.067" fill="none"/><text transform="matrix(.94 0 0 1 6.712 135.597)"><tspan x="0" y="0" fill="#989898" font-family="'Montserrat-Bold'" font-size="15.002">Um instrumento participativo</tspan><tspan x="22.705" y="18.002" fill="#989898" font-family="'Montserrat-Bold'" font-size="15.002">de planejamento para a</tspan><tspan x="32.793" y="36.004" fill="#989898" font-family="'Montserrat-Bold'" font-size="15.002">Cidade de São Paulo.</tspan><tspan x="67.237" y="58.004" fill="#989898" font-family="'Montserrat-Regular'" font-size="15.002">SAIBA MAIS</tspan></text><text transform="matrix(.94 0 0 1 34.584 110.465)" fill="#989898" font-family="'Montserrat-Bold'" font-size="24.003">O PROGRAMA</text><g fill="#CCCBCB"><path d="M97.898 37.359c.452-.458 1.06-.706 1.703-.706.645 0 1.251.25 1.707.706.393.389 2.3 2.295 4.244 4.238.411.412.682.539.795.577.115-.168.323-.674.323-1.701v-22.61c0-2.338-1.903-4.243-4.24-4.243h-8.483c-1.133 0-1.948.092-2.493.192.838 1.951 1.082 5.151 1.082 6.88v19.781c0 1.027.204 1.533.319 1.701.111-.039.385-.165.8-.579l2.073-2.072 2.17-2.164zM143.144 15.268c-.447-.969-1.425-1.648-2.559-1.648h-16.96c-1.551 0-4.005.476-5.45 1.054l-1.817.728c-.718.287-1.671.433-2.622.433-.953 0-1.903-.146-2.625-.433l-1.815-.728c-.762-.306-1.804-.578-2.847-.767.863.87 1.418 2.028 1.566 3.308l.23.082 1.814.728c.76.303 1.544.46 2.263.544v45.14l-.163-.054-1.815-.726c-1.785-.715-4.581-1.254-6.502-1.254h-16.961v-45.227h3.852c-.255-1.356-.623-2.421-1.026-2.829h-2.826c-1.129 0-2.107.679-2.559 1.648-.992.44-1.695 1.434-1.695 2.595v50.878c0 1.568 1.274 2.84 2.84 2.84h15.548c3.474 0 7.965.712 10.231 1.617.597.238 1.526.381 2.489.381.959 0 1.889-.143 2.488-.381 2.268-.904 6.758-1.617 10.23-1.617h15.547c1.567 0 2.841-1.272 2.841-2.84v-50.877c-.001-1.161-.701-2.155-1.697-2.595zm-2.559 46.406h-16.96c-1.921 0-4.712.539-6.501 1.255l-1.814.724-.164.054v-45.14c.723-.083 1.504-.241 2.264-.546l1.816-.726c1.108-.444 3.205-.848 4.399-.848h16.96v45.227z"/></g></svg>