<svg xmlns="http://www.w3.org/2000/svg" width="684.344" height="89"><g fill="#919192"><path d="M162.98 75.416v-45.383c0-1.808.501-3.278 1.505-4.405 1.003-1.128 2.324-1.689 3.958-1.689 2.923 0 4.757 1.521 5.501 4.57 1.016-1.634 2.464-2.881 4.349-3.737 1.883-.853 3.903-1.28 6.058-1.28 3.742 0 6.944 1.029 9.607 3.085 2.666 2.057 4.676 4.745 6.042 8.065 1.362 3.32 2.045 6.839 2.045 10.554 0 3.47-.748 6.797-2.25 9.982-1.499 3.182-3.637 5.753-6.411 7.713-2.774 1.957-5.911 2.936-9.405 2.936-1.733 0-3.48-.328-5.239-.982-1.76-.655-3.358-1.6-4.795-2.832v13.407c0 1.138-.236 2.178-.707 3.117-.47.942-1.128 1.666-1.969 2.174-.842.508-1.784.764-2.825.764-1.634 0-2.955-.553-3.958-1.656-1.005-1.102-1.506-2.57-1.506-4.403zm10.965-31.055c0 2.954.737 5.596 2.211 7.928 1.474 2.336 3.599 3.5 6.375 3.5 1.785 0 3.333-.546 4.646-1.635 1.312-1.095 2.293-2.478 2.938-4.152.642-1.677.964-3.433.964-5.272 0-1.835-.323-3.607-.964-5.32-.644-1.712-1.62-3.123-2.919-4.227-1.3-1.104-2.855-1.656-4.665-1.656-1.86 0-3.438.515-4.741 1.543-1.3 1.033-2.265 2.364-2.896 4.004-.632 1.641-.949 3.398-.949 5.287zM209.571 59.246v-46.868c0-1.808.5-3.276 1.504-4.405 1.003-1.128 2.324-1.689 3.958-1.689 1.066 0 2.014.253 2.844.762.828.508 1.48 1.225 1.951 2.154.47.932.707 1.99.707 3.179v46.868c0 1.189-.237 2.25-.707 3.18-.47.928-1.128 1.648-1.97 2.153-.843.509-1.783.761-2.825.761-1.634 0-2.955-.562-3.958-1.689-1.003-1.129-1.504-2.597-1.504-4.406zM267.126 31.111v27.097c0 2.13-.296 3.85-.893 5.164s-2.056 1.968-4.386 1.968c-1.486 0-2.633-.387-3.438-1.164-.809-.773-1.406-1.931-1.803-3.459-2.898 3.406-6.381 5.109-10.444 5.109-3.371 0-6.443-.905-9.219-2.715-2.774-1.809-4.948-4.317-6.523-7.526-1.572-3.209-2.358-6.832-2.358-10.871 0-3.891.805-7.464 2.416-10.722 1.609-3.26 3.803-5.821 6.578-7.695 2.775-1.87 5.811-2.806 9.107-2.806 2.055 0 4.012.423 5.874 1.262 1.857.845 3.383 2.096 4.57 3.756.147-1.337.723-2.434 1.728-3.29 1.005-.853 2.175-1.28 3.513-1.28 2.33 0 3.79.66 4.386 1.988.596 1.326.892 3.052.892 5.184zm-28.1 13.618c0 1.866.329 3.645.984 5.348.657 1.697 1.634 3.076 2.938 4.131 1.299 1.056 2.879 1.581 4.739 1.581 2.673 0 4.755-1.111 6.243-3.331 1.489-2.223 2.23-4.796 2.23-7.729 0-1.835-.315-3.613-.947-5.339s-1.599-3.136-2.898-4.227c-1.301-1.09-2.845-1.638-4.627-1.638-1.836 0-3.415.541-4.739 1.62-1.328 1.08-2.313 2.488-2.956 4.226-.644 1.737-.967 3.524-.967 5.358zM276.23 59.246v-29.213c0-1.808.502-3.278 1.507-4.405 1.001-1.128 2.322-1.689 3.957-1.689 1.412 0 2.56.358 3.437 1.075.881.722 1.418 1.711 1.621 2.975 2.129-2.999 5.648-4.497 10.555-4.497 2.871 0 5.449.59 7.729 1.766 2.278 1.175 4.062 2.876 5.352 5.092 1.288 2.218 1.934 4.849 1.934 7.898v20.999c0 1.189-.237 2.25-.706 3.18-.473.928-1.13 1.648-1.97 2.153-.845.509-1.786.761-2.826.761-1.636 0-2.956-.562-3.957-1.689-1.007-1.127-1.508-2.596-1.508-4.404v-19.106c0-2.45-.663-4.315-1.989-5.592-1.326-1.277-3.053-1.917-5.183-1.917-1.438 0-2.689.33-3.754.985-1.067.657-1.872 1.546-2.417 2.657-.546 1.115-.818 2.407-.818 3.866v19.104c0 1.189-.237 2.25-.706 3.18-.472.928-1.127 1.648-1.968 2.153-.847.509-1.784.761-2.826.761-1.635 0-2.956-.562-3.957-1.689-1.004-1.127-1.507-2.595-1.507-4.404zM354.287 48.319h-23.341c.37 2.603 1.51 4.571 3.419 5.911 1.908 1.338 4.212 2.006 6.912 2.006 1.66 0 3.072-.261 4.24-.781 1.164-.519 2.619-1.258 4.367-2.212 1.746-.954 3.018-1.431 3.811-1.431.74 0 1.465.23 2.172.688.707.46 1.273 1.048 1.693 1.767.418.718.631 1.474.631 2.267 0 1.138-.527 2.268-1.582 3.383-1.051 1.114-2.449 2.111-4.197 2.992-1.746.881-3.719 1.584-5.908 2.116-2.195.535-4.272.802-6.229.802-3.99 0-7.556-.91-10.705-2.734-3.146-1.821-5.573-4.336-7.282-7.543-1.71-3.207-2.567-6.821-2.567-10.835 0-2.727.49-5.378 1.468-7.954.979-2.576 2.344-4.867 4.088-6.875 1.749-2.007 3.84-3.575 6.283-4.703 2.439-1.127 5.05-1.69 7.823-1.69 2.849 0 5.507.59 7.974 1.766 2.465 1.175 4.553 2.731 6.264 4.664 1.707 1.933 3.043 4.082 4.012 6.448.967 2.368 1.451 4.717 1.451 7.044 0 3.271-1.598 4.904-4.797 4.904zm-23.6-7.323h17.432c-.297-2.501-1.215-4.52-2.752-6.058-1.536-1.536-3.53-2.306-5.984-2.306-2.353 0-4.313.78-5.872 2.343-1.562 1.561-2.503 3.569-2.824 6.021zM428.141 31.111v27.097c0 2.13-.295 3.85-.891 5.164-.594 1.314-2.061 1.968-4.387 1.968-1.484 0-2.633-.387-3.439-1.164-.805-.773-1.406-1.931-1.801-3.459-2.9 3.406-6.381 5.109-10.443 5.109-3.371 0-6.445-.905-9.219-2.715-2.773-1.809-4.951-4.317-6.523-7.526s-2.359-6.832-2.359-10.871c0-3.891.805-7.464 2.416-10.722 1.611-3.26 3.807-5.821 6.58-7.695 2.771-1.87 5.811-2.806 9.105-2.806 2.055 0 4.014.423 5.871 1.262 1.857.845 3.383 2.096 4.572 3.756.146-1.337.727-2.434 1.725-3.29 1.01-.853 2.176-1.28 3.516-1.28 2.326 0 3.793.66 4.387 1.988.595 1.326.89 3.052.89 5.184zm-28.096 13.618c0 1.866.324 3.645.982 5.348.654 1.697 1.637 3.076 2.938 4.131 1.299 1.056 2.879 1.581 4.736 1.581 2.678 0 4.762-1.111 6.244-3.331 1.488-2.223 2.232-4.796 2.232-7.729 0-1.835-.316-3.613-.947-5.339-.635-1.726-1.6-3.136-2.9-4.227-1.301-1.09-2.846-1.638-4.629-1.638-1.832 0-3.414.541-4.736 1.62-1.33 1.08-2.314 2.488-2.957 4.226-.645 1.737-.963 3.524-.963 5.358zM443.49 30.529c.762-1.446 1.812-2.667 3.158-3.654 1.346-.989 2.828-1.728 4.457-2.208 1.621-.482 3.295-.724 5.021-.724 1.369 0 2.854.179 4.451.532 1.6.358 3.086.853 4.455 1.485 1.369.635 2.473 1.396 3.311 2.281.838.89 1.254 1.844 1.254 2.857 0 .759-.264 1.405-.797 1.942-.533.529-1.281.796-2.244.796-.51 0-.977-.112-1.41-.34-.434-.229-1.002-.597-1.713-1.106-1.064-.807-2.133-1.459-3.197-1.939-1.066-.48-2.436-.723-4.109-.723-2.031 0-3.719.443-5.062 1.329-1.348.891-2.018 2.146-2.018 3.771 0 1.371.711 2.498 2.131 3.388 1.418.889 3.629 1.916 6.623 3.082 1.98.762 3.654 1.461 5.023 2.094 1.369.635 2.65 1.382 3.846 2.245 1.191.864 2.158 1.894 2.895 3.084.732 1.192 1.1 2.576 1.1 4.149 0 4.008-1.445 7.091-4.336 9.246-2.895 2.16-6.367 3.234-10.432 3.234-2.078 0-4.045-.227-5.898-.684-1.852-.459-3.475-1.066-4.871-1.828-1.398-.76-2.486-1.598-3.273-2.51-.789-.913-1.178-1.799-1.178-2.663 0-.868.268-1.587.797-2.174.535-.581 1.18-.872 1.941-.872.76 0 1.959.559 3.576 1.674 1.422 1.016 2.818 1.815 4.188 2.397 1.371.586 3.021.875 4.949.875 2.334 0 4.225-.56 5.67-1.675s2.17-2.385 2.17-3.805c0-1.626-.775-2.955-2.322-3.997-1.549-1.037-3.896-2.22-7.043-3.536-1.977-.815-3.602-1.525-4.869-2.134-1.27-.611-2.475-1.333-3.617-2.17-1.141-.838-2.055-1.829-2.738-2.97-.686-1.14-1.027-2.446-1.027-3.919-.002-1.773.377-3.383 1.138-4.83zM516.812 62.08c0 1.066-.33 1.877-.988 2.434-.66.56-1.373.838-2.131.838-.812 0-1.539-.278-2.172-.838-.635-.557-.947-1.367-.947-2.434v-2.816h-.154c-2.842 4.06-6.521 6.088-11.039 6.088-2.787 0-5.291-.557-7.5-1.674-2.203-1.117-4.084-2.651-5.631-4.605-1.547-1.951-2.713-4.173-3.5-6.659-.789-2.486-1.18-5.073-1.18-7.765 0-2.69.391-5.276 1.18-7.765.787-2.486 1.953-4.706 3.5-6.659 1.547-1.952 3.428-3.49 5.631-4.607 2.209-1.114 4.713-1.674 7.5-1.674 2.234 0 4.227.445 5.979 1.332 1.752.888 3.434 2.245 5.061 4.074h.154v-2.133c0-1.064.312-1.878.947-2.434.633-.56 1.359-.84 2.172-.84.758 0 1.471.28 2.131.84.658.556.988 1.369.988 2.434v34.863zm-27.935-12.102c.404 1.724 1.055 3.324 1.939 4.796.887 1.471 2.041 2.639 3.465 3.5 1.422.862 3.117 1.294 5.1 1.294 1.979 0 3.68-.432 5.102-1.294 1.42-.861 2.572-2.029 3.463-3.5.887-1.472 1.531-3.072 1.945-4.796.398-1.726.604-3.502.604-5.329s-.205-3.604-.604-5.327c-.414-1.724-1.059-3.324-1.945-4.796-.891-1.473-2.043-2.639-3.463-3.504-1.422-.86-3.123-1.292-5.102-1.292-1.982 0-3.678.432-5.1 1.292-1.424.865-2.578 2.031-3.465 3.504-.885 1.472-1.535 3.072-1.939 4.796-.406 1.724-.607 3.5-.607 5.327s.201 3.603.607 5.329zM556.396 39.092c0-2.892-.76-5.177-2.283-6.852-1.521-1.674-3.654-2.511-6.393-2.511-2.691 0-4.797.837-6.322 2.511-1.52 1.675-2.281 3.96-2.281 6.852v22.684c0 1.115-.303 1.99-.914 2.625-.607.635-1.418.951-2.434.951s-1.828-.316-2.436-.951c-.609-.635-.916-1.51-.916-2.625v-34.255c0-1.117.307-1.99.916-2.625.607-.635 1.42-.952 2.436-.952s1.826.317 2.434.952c.611.635.914 1.508.914 2.625v1.218l.148.153c1.121-1.472 2.428-2.666 3.928-3.577 1.49-.914 3.584-1.371 6.277-1.371 2.18 0 4.225.532 6.127 1.599 1.902 1.064 3.564 2.818 4.988 5.254 1.568-2.287 3.334-4 5.285-5.138 1.957-1.142 4.328-1.715 7.119-1.715 1.674 0 3.326.28 4.947.84 1.627.556 3.135 1.442 4.529 2.663 1.396 1.217 2.512 2.814 3.35 4.794.836 1.979 1.256 4.339 1.256 7.081v22.454c0 1.115-.303 1.99-.914 2.625-.607.635-1.418.951-2.436.951-1.014 0-1.826-.316-2.436-.951-.605-.635-.912-1.51-.912-2.625v-22.684c0-2.892-.758-5.177-2.285-6.852-1.521-1.674-3.652-2.511-6.391-2.511-2.689 0-4.797.837-6.322 2.511-1.52 1.675-2.279 3.96-2.279 6.852v22.684c0 1.115-.305 1.99-.914 2.625s-1.424.951-2.438.951c-1.012 0-1.83-.316-2.434-.951-.609-.635-.916-1.51-.916-2.625v-22.684zM600.863 27.521c0-1.117.305-1.99.916-2.625.609-.635 1.418-.952 2.436-.952 1.014 0 1.826.317 2.436.952.607.635.912 1.508.912 2.625v1.979h.154c1.926-3.703 5.529-5.557 10.809-5.557 2.689 0 5.115.56 7.268 1.674 2.16 1.117 3.973 2.655 5.445 4.607 1.469 1.953 2.598 4.173 3.387 6.659.787 2.488 1.178 5.074 1.178 7.765s-.377 5.278-1.141 7.765c-.76 2.486-1.902 4.708-3.424 6.659-1.521 1.954-3.35 3.488-5.48 4.605s-4.543 1.674-7.232 1.674c-2.436 0-4.594-.545-6.467-1.637-1.883-1.09-3.326-2.371-4.342-3.844h-.154v17.89c0 1.115-.305 1.992-.912 2.625-.609.639-1.422.954-2.436.954-1.018 0-1.826-.315-2.436-.954-.611-.633-.916-1.51-.916-2.625v-50.239zm6.623 22.457c.406 1.724 1.055 3.324 1.941 4.796.889 1.471 2.041 2.639 3.467 3.5 1.418.862 3.119 1.294 5.098 1.294 1.98 0 3.678-.432 5.102-1.294 1.42-.861 2.574-2.029 3.463-3.5.889-1.472 1.533-3.072 1.939-4.796.406-1.726.607-3.502.607-5.329s-.201-3.604-.607-5.327-1.051-3.324-1.939-4.796c-.889-1.473-2.043-2.639-3.463-3.504-1.424-.86-3.121-1.292-5.102-1.292-1.979 0-3.68.432-5.098 1.292-1.426.865-2.578 2.031-3.467 3.504-.887 1.472-1.535 3.072-1.941 4.796-.408 1.724-.609 3.5-.609 5.327s.201 3.603.609 5.329zM681.566 62.08c0 1.066-.328 1.877-.986 2.434-.66.56-1.371.838-2.135.838-.809 0-1.533-.278-2.168-.838-.637-.557-.951-1.367-.951-2.434v-2.816h-.154c-2.84 4.06-6.52 6.088-11.035 6.088-2.791 0-5.291-.557-7.5-1.674-2.203-1.117-4.082-2.651-5.631-4.605-1.549-1.951-2.715-4.173-3.5-6.659-.789-2.486-1.182-5.073-1.182-7.765 0-2.69.393-5.276 1.182-7.765.785-2.486 1.951-4.706 3.5-6.659 1.549-1.952 3.428-3.49 5.631-4.607 2.209-1.114 4.709-1.674 7.5-1.674 2.23 0 4.225.445 5.975 1.332 1.752.888 3.436 2.245 5.061 4.074h.154v-2.133c0-1.064.314-1.878.951-2.434.635-.56 1.359-.84 2.168-.84.764 0 1.475.28 2.135.84.658.556.986 1.369.986 2.434v34.863zm-27.933-12.102c.402 1.724 1.051 3.324 1.938 4.796.887 1.471 2.047 2.639 3.467 3.5 1.42.862 3.119 1.294 5.1 1.294 1.977 0 3.678-.432 5.1-1.294 1.42-.861 2.572-2.029 3.463-3.5.887-1.472 1.533-3.072 1.943-4.796.404-1.726.607-3.502.607-5.329s-.203-3.604-.607-5.327c-.41-1.724-1.057-3.324-1.943-4.796-.891-1.473-2.043-2.639-3.463-3.504-1.422-.86-3.123-1.292-5.1-1.292-1.98 0-3.68.432-5.1 1.292-1.42.865-2.58 2.031-3.467 3.504-.887 1.472-1.535 3.072-1.938 4.796-.408 1.724-.611 3.5-.611 5.327s.203 3.603.611 5.329zM380.305 27.925c-.471-.93-1.123-1.648-1.953-2.157-.826-.506-1.779-.763-2.844-.763-1.635 0-2.953.563-3.955 1.693-.629.701-1.033 1.555-1.27 2.522-.156.249-.246.54-.246.843v34.431c0 5.743-3.414 8.406-6.66 8.406-1.748 0-3.053-.609-4.053-1.351l-1.939-2.132c-1.092-1.197-2.289-1.857-3.602-1.979-1.311-.124-2.5.301-3.564 1.271-.682.619-1.145 1.346-1.395 2.18-.246.832-.244 1.693.01 2.59.254.892.715 1.711 1.395 2.455l.924 1.017c.234.278.523.597.861.944l.322.354.02-.018c2.041 1.971 5.668 4.484 11.191 4.484 9.736 0 17.473-6.654 17.473-18.223v-34.429c0-.297-.084-.578-.236-.822-.12-.466-.272-.905-.479-1.316zM375.143 18.972c1.713 0 3.166-.624 4.369-1.876 1.201-1.251 1.805-2.73 1.805-4.443 0-1.014-.287-1.986-.857-2.914-.572-.932-1.324-1.681-2.268-2.25-.941-.57-1.955-.856-3.049-.856-1.611 0-3.039.612-4.289 1.839-1.254 1.229-1.879 2.621-1.879 4.182 0 1.638.625 3.099 1.879 4.389 1.25 1.286 2.677 1.929 4.289 1.929z"/><g opacity=".6"><path d="M97.43 29.17v.653c0 1.337-.984 2.419-2.197 2.419s-2.197-1.082-2.197-2.419v-.653c0-.556-.411-1.011-.919-1.011-1.213 0-2.215-1.083-2.215-2.418 0-1.337.966-2.421 2.179-2.421h.036c2.93 0 5.313 2.623 5.313 5.85zm-5.025 36.312h-.592c-1.213 0-2.199-1.086-2.199-2.42 0-1.338.986-2.421 2.199-2.421h.592c.505 0 .916-.454.916-1.011 0-1.336.986-2.441 2.197-2.441 1.213 0 2.197 1.065 2.197 2.4v.041c0 3.227-2.382 5.852-5.31 5.852zm-31.861-42.176h.591c1.213 0 2.196 1.083 2.196 2.42s-.983 2.421-2.196 2.421h-.591c-.508 0-.918.452-.918 1.012 0 1.337-.983 2.438-2.196 2.438s-2.197-1.061-2.197-2.399v-.038c-.001-3.231 2.383-5.854 5.311-5.854zm-4.964 36.372v-.651c0-1.337.986-2.423 2.197-2.423 1.215 0 2.199 1.086 2.199 2.423v.651c0 .557.411 1.009.917 1.011 1.213-.002 2.213 1.083 2.213 2.421 0 1.336-.962 2.418-2.179 2.418h-.034c-2.931-.001-5.313-2.626-5.313-5.85zm4.055-23.155v4.9c0 1.086-.986 1.965-2.199 1.965-1.212 0-2.198-.879-2.198-1.965v-4.9c0-1.086.986-1.961 2.198-1.961 1.213 0 2.199.876 2.199 1.961zm0 11.348v4.9c0 1.084-.986 1.963-2.199 1.963-1.212 0-2.198-.879-2.198-1.963v-4.9c0-1.084.986-1.963 2.198-1.963 1.213 0 2.199.879 2.199 1.963zm37.846-11.348v4.9c0 1.086-.982 1.965-2.195 1.965s-2.198-.879-2.198-1.965v-4.9c0-1.086.985-1.961 2.198-1.961s2.195.876 2.195 1.961zm0 11.348v4.9c0 1.084-.982 1.963-2.195 1.963s-2.198-.879-2.198-1.963v-4.9c0-1.084.985-1.963 2.198-1.963s2.195.879 2.195 1.963zM68.256 61.143h4.9c1.083 0 1.962.982 1.962 2.197 0 1.211-.879 2.199-1.962 2.199h-4.9c-1.085 0-1.964-.988-1.964-2.199 0-1.215.878-2.197 1.964-2.197zM79.938 61.143h4.901c1.085 0 1.965.982 1.965 2.197 0 1.211-.88 2.199-1.965 2.199h-4.901c-1.081 0-1.962-.988-1.962-2.199 0-1.215.881-2.197 1.962-2.197zM68.256 23.292h4.9c1.083 0 1.962.984 1.962 2.197 0 1.215-.879 2.201-1.962 2.201h-4.9c-1.085 0-1.964-.986-1.964-2.201 0-1.213.878-2.197 1.964-2.197zM79.938 23.292h4.901c1.085 0 1.965.984 1.965 2.197 0 1.215-.88 2.201-1.965 2.201h-4.901c-1.081 0-1.962-.986-1.962-2.201 0-1.213.881-2.197 1.962-2.197z"/></g><g opacity=".3"><path d="M44.971 29.17v.653c0 1.337-.982 2.419-2.196 2.419-1.213 0-2.197-1.082-2.197-2.419v-.653c0-.556-.41-1.011-.919-1.011-1.211 0-2.212-1.083-2.212-2.418 0-1.337.963-2.421 2.176-2.421h.036c2.931 0 5.312 2.623 5.312 5.85zm-5.024 36.312h-.591c-1.214 0-2.199-1.086-2.199-2.42 0-1.338.985-2.421 2.199-2.421h.591c.506 0 .916-.454.916-1.011 0-1.336.986-2.441 2.197-2.441 1.215 0 2.199 1.065 2.199 2.4v.041c0 3.227-2.384 5.852-5.312 5.852zm-31.86-42.176h.59c1.213 0 2.196 1.083 2.196 2.42s-.983 2.421-2.196 2.421h-.59c-.507 0-.917.452-.917 1.012 0 1.337-.986 2.438-2.199 2.438-1.211 0-2.195-1.061-2.195-2.399v-.038c.001-3.231 2.383-5.854 5.311-5.854zm-4.963 36.372l-.001-.651c.001-1.337.986-2.423 2.199-2.423s2.197 1.086 2.197 2.423v.651c0 .557.41 1.009.915 1.011 1.214-.002 2.215 1.083 2.215 2.421 0 1.336-.963 2.418-2.179 2.418h-.036c-2.929-.001-5.311-2.626-5.31-5.85zm4.054-23.155v4.9c0 1.086-.984 1.965-2.199 1.965-1.212 0-2.198-.879-2.198-1.965v-4.9c0-1.086.986-1.961 2.198-1.961 1.214 0 2.199.876 2.199 1.961zm0 11.348v4.9c0 1.084-.984 1.963-2.199 1.963-1.212 0-2.198-.879-2.198-1.963v-4.9c0-1.084.986-1.963 2.198-1.963 1.214 0 2.199.879 2.199 1.963zm37.848-11.348v4.9c0 1.086-.986 1.965-2.199 1.965s-2.199-.879-2.199-1.965v-4.9c0-1.086.986-1.961 2.199-1.961s2.199.876 2.199 1.961zm0 11.348v4.9c0 1.084-.986 1.963-2.199 1.963s-2.199-.879-2.199-1.963v-4.9c0-1.084.986-1.963 2.199-1.963s2.199.879 2.199 1.963zM15.798 61.143h4.9c1.083 0 1.964.982 1.964 2.197 0 1.211-.88 2.199-1.964 2.199h-4.9c-1.083 0-1.961-.988-1.961-2.199 0-1.215.878-2.197 1.961-2.197zM27.483 61.143h4.899c1.085 0 1.964.982 1.964 2.197 0 1.211-.879 2.199-1.964 2.199h-4.899c-1.085 0-1.965-.988-1.965-2.199 0-1.215.88-2.197 1.965-2.197zM15.798 23.292h4.9c1.083 0 1.964.984 1.964 2.197 0 1.215-.88 2.201-1.964 2.201h-4.9c-1.083 0-1.961-.986-1.961-2.201 0-1.213.878-2.197 1.961-2.197zM27.483 23.292h4.899c1.085 0 1.964.984 1.964 2.197 0 1.215-.879 2.201-1.964 2.201h-4.899c-1.085 0-1.965-.986-1.965-2.201 0-1.213.88-2.197 1.965-2.197z"/></g><path d="M150.236 29.17v.653c0 1.337-.983 2.419-2.196 2.419-1.214 0-2.198-1.082-2.198-2.419v-.653c0-.556-.409-1.011-.918-1.011-1.21 0-2.212-1.083-2.212-2.418 0-1.337.966-2.421 2.176-2.421h.036c2.931 0 5.312 2.623 5.312 5.85zm-5.024 36.312h-.591c-1.214 0-2.199-1.086-2.199-2.42 0-1.338.985-2.421 2.199-2.421h.591c.507 0 .919-.454.919-1.011 0-1.336.982-2.441 2.195-2.441 1.214 0 2.198 1.065 2.198 2.4v.041c0 3.227-2.383 5.852-5.312 5.852zm-31.859-42.176h.59c1.213 0 2.197 1.083 2.197 2.42s-.984 2.421-2.197 2.421h-.59c-.507 0-.918.452-.918 1.012 0 1.337-.985 2.438-2.198 2.438-1.209 0-2.194-1.061-2.194-2.399v-.038c-.001-3.231 2.381-5.854 5.31-5.854zm-4.963 36.372l-.001-.651c.001-1.337.985-2.423 2.199-2.423 1.213 0 2.196 1.086 2.196 2.423v.651c0 .557.411 1.009.916 1.011 1.213-.002 2.217 1.083 2.217 2.421 0 1.336-.966 2.418-2.179 2.418h-.038c-2.928-.001-5.311-2.626-5.31-5.85zm4.053-23.155v4.9c0 1.086-.984 1.965-2.197 1.965s-2.199-.879-2.199-1.965v-4.9c0-1.086.986-1.961 2.199-1.961s2.197.876 2.197 1.961zm0 11.348v4.9c0 1.084-.984 1.963-2.197 1.963s-2.199-.879-2.199-1.963v-4.9c0-1.084.986-1.963 2.199-1.963s2.197.879 2.197 1.963zm37.849-11.348v4.9c0 1.086-.985 1.965-2.199 1.965-1.213 0-2.196-.879-2.196-1.965v-4.9c0-1.086.983-1.961 2.196-1.961s2.199.876 2.199 1.961zm0 11.348v4.9c0 1.084-.985 1.963-2.199 1.963-1.213 0-2.196-.879-2.196-1.963v-4.9c0-1.084.983-1.963 2.196-1.963s2.199.879 2.199 1.963zM121.064 61.143h4.899c1.084 0 1.965.982 1.965 2.197 0 1.211-.881 2.199-1.965 2.199h-4.899c-1.084 0-1.963-.988-1.963-2.199.001-1.215.879-2.197 1.963-2.197zM132.748 61.143h4.902c1.084 0 1.963.982 1.963 2.197 0 1.211-.879 2.199-1.963 2.199h-4.902c-1.084 0-1.961-.988-1.961-2.199-.001-1.215.876-2.197 1.961-2.197zM121.064 23.292h4.899c1.084 0 1.965.984 1.965 2.197 0 1.215-.881 2.201-1.965 2.201h-4.899c-1.084 0-1.963-.986-1.963-2.201.001-1.213.879-2.197 1.963-2.197zM132.748 23.292h4.902c1.084 0 1.963.984 1.963 2.197 0 1.215-.879 2.201-1.963 2.201h-4.902c-1.084 0-1.961-.986-1.961-2.201-.001-1.213.876-2.197 1.961-2.197zM119.769 37.616c-.279-.051-.562-.019-.85.092-.444.175-.744.468-.898.877-.154.413-.131.867.06 1.355l4.805 12.308c.193.496.486.841.874 1.034.391.193.806.201 1.249.03.284-.11.512-.277.686-.505.175-.226.276-.494.302-.798.029-.307-.016-.612-.138-.922l-4.804-12.308c-.126-.323-.304-.586-.528-.789-.226-.199-.48-.325-.758-.374zM124.447 48.417c-.534.678-1.03 1.357-1.515 2.036l1.118 2.857 1.757-.688c.431-.609.888-1.231 1.376-1.851 3.843-4.883 7.938-7.996 9.15-6.954l4.311-5.479c-2.725-2.345-9.977 2.168-16.197 10.079z"/></g></svg>