<svg xmlns="http://www.w3.org/2000/svg" width="56.031" height="57.689"><g fill="#ccc"><path d="M28.017 56.623c-1.916 0-3.473-1.555-3.473-3.469 0-1.92 1.557-3.474 3.473-3.474 1.912 0 3.469 1.554 3.469 3.474-.001 1.914-1.557 3.469-3.469 3.469zM35.884 48.756c-1.916 0-3.469-1.554-3.469-3.477 0-1.915 1.553-3.474 3.469-3.474 1.924 0 3.477 1.559 3.477 3.474-.001 1.924-1.553 3.477-3.477 3.477zM43.763 40.878c-1.922 0-3.473-1.554-3.473-3.469 0-1.919 1.551-3.473 3.473-3.473 1.912 0 3.471 1.554 3.471 3.473-.001 1.916-1.559 3.469-3.471 3.469zM51.632 33.013c-1.916 0-3.471-1.559-3.471-3.478 0-1.915 1.555-3.469 3.471-3.469 1.918 0 3.471 1.554 3.471 3.469 0 1.92-1.553 3.478-3.471 3.478zM23.618 45.28c0 1.923-1.557 3.477-3.473 3.477-1.918 0-3.471-1.554-3.471-3.477 0-1.915 1.553-3.474 3.471-3.474 1.917 0 3.473 1.559 3.473 3.474zM15.745 37.41c0 1.915-1.555 3.469-3.477 3.469-1.912 0-3.471-1.554-3.471-3.469 0-1.919 1.559-3.473 3.471-3.473 1.922 0 3.477 1.554 3.477 3.473zM7.87 29.536c0 1.919-1.557 3.478-3.471 3.478-1.918 0-3.471-1.559-3.471-3.478 0-1.915 1.553-3.469 3.471-3.469 1.914 0 3.471 1.554 3.471 3.469zM28.017 31.623c-1.916 0-3.473-1.555-3.473-3.469 0-1.92 1.557-3.474 3.473-3.474 1.912 0 3.469 1.554 3.469 3.474-.001 1.914-1.557 3.469-3.469 3.469zM35.884 23.756c-1.916 0-3.469-1.554-3.469-3.477 0-1.915 1.553-3.474 3.469-3.474 1.924 0 3.477 1.559 3.477 3.474-.001 1.924-1.553 3.477-3.477 3.477zM43.763 15.878c-1.922 0-3.473-1.554-3.473-3.469 0-1.919 1.551-3.473 3.473-3.473 1.912 0 3.471 1.554 3.471 3.473-.001 1.916-1.559 3.469-3.471 3.469zM51.632 8.013c-1.916 0-3.471-1.559-3.471-3.478 0-1.915 1.555-3.469 3.471-3.469 1.918 0 3.471 1.554 3.471 3.469 0 1.92-1.553 3.478-3.471 3.478zM23.618 20.28c0 1.923-1.557 3.477-3.473 3.477-1.918 0-3.471-1.554-3.471-3.477 0-1.915 1.553-3.474 3.471-3.474 1.917 0 3.473 1.559 3.473 3.474zM15.745 12.41c0 1.915-1.555 3.469-3.477 3.469-1.912 0-3.471-1.554-3.471-3.469 0-1.919 1.559-3.473 3.471-3.473 1.922 0 3.477 1.554 3.477 3.473zM7.87 4.536c0 1.919-1.557 3.478-3.471 3.478-1.918 0-3.471-1.559-3.471-3.478 0-1.915 1.553-3.469 3.471-3.469 1.914 0 3.471 1.554 3.471 3.469z"/></g></svg>