<?xml version="1.0" encoding="utf-8"?>
<!-- Generator: Adobe Illustrator 16.0.0, SVG Export Plug-In . SVG Version: 6.00 Build 0)  -->
<!DOCTYPE svg PUBLIC "-//W3C//DTD SVG 1.1//EN" "http://www.w3.org/Graphics/SVG/1.1/DTD/svg11.dtd">
<svg version="1.1" id="Layer_1" xmlns="http://www.w3.org/2000/svg" xmlns:xlink="http://www.w3.org/1999/xlink" x="0px" y="0px"
	 width="684.344px" height="89px" viewBox="0 0 684.344 89" enable-background="new 0 0 684.344 89" xml:space="preserve">
<g>
	<path fill="#919192" d="M162.98,75.416V30.033c0-1.808,0.501-3.278,1.505-4.405c1.003-1.128,2.324-1.689,3.958-1.689
		c2.923,0,4.757,1.521,5.501,4.57c1.016-1.634,2.464-2.881,4.349-3.737c1.883-0.853,3.903-1.28,6.058-1.28
		c3.742,0,6.944,1.029,9.607,3.085c2.666,2.057,4.676,4.745,6.042,8.065c1.362,3.32,2.045,6.839,2.045,10.554
		c0,3.47-0.748,6.797-2.25,9.982c-1.499,3.182-3.637,5.753-6.411,7.713c-2.774,1.957-5.911,2.936-9.405,2.936
		c-1.733,0-3.48-0.328-5.239-0.982c-1.76-0.655-3.358-1.6-4.795-2.832V75.42c0,1.138-0.236,2.178-0.707,3.117
		c-0.47,0.942-1.128,1.666-1.969,2.174c-0.842,0.508-1.784,0.764-2.825,0.764c-1.634,0-2.955-0.553-3.958-1.656
		C163.481,78.717,162.98,77.249,162.98,75.416z M173.945,44.361c0,2.954,0.737,5.596,2.211,7.928c1.474,2.336,3.599,3.5,6.375,3.5
		c1.785,0,3.333-0.546,4.646-1.635c1.312-1.095,2.293-2.478,2.938-4.152c0.642-1.677,0.964-3.433,0.964-5.272
		c0-1.835-0.323-3.607-0.964-5.32c-0.644-1.712-1.62-3.123-2.919-4.227c-1.3-1.104-2.855-1.656-4.665-1.656
		c-1.86,0-3.438,0.515-4.741,1.543c-1.3,1.033-2.265,2.364-2.896,4.004C174.262,40.715,173.945,42.472,173.945,44.361z"/>
	<path fill="#919192" d="M209.571,59.246V12.378c0-1.808,0.5-3.276,1.504-4.405c1.003-1.128,2.324-1.689,3.958-1.689
		c1.066,0,2.014,0.253,2.844,0.762c0.828,0.508,1.48,1.225,1.951,2.154c0.47,0.932,0.707,1.99,0.707,3.179v46.868
		c0,1.189-0.237,2.25-0.707,3.18c-0.47,0.928-1.128,1.648-1.97,2.153c-0.843,0.509-1.783,0.761-2.825,0.761
		c-1.634,0-2.955-0.562-3.958-1.689C210.072,62.523,209.571,61.055,209.571,59.246z"/>
	<path fill="#919192" d="M267.126,31.111v27.097c0,2.13-0.296,3.85-0.893,5.164s-2.056,1.968-4.386,1.968
		c-1.486,0-2.633-0.387-3.438-1.164c-0.809-0.773-1.406-1.931-1.803-3.459c-2.898,3.406-6.381,5.109-10.444,5.109
		c-3.371,0-6.443-0.905-9.219-2.715c-2.774-1.809-4.948-4.317-6.523-7.526c-1.572-3.209-2.358-6.832-2.358-10.871
		c0-3.891,0.805-7.464,2.416-10.722c1.609-3.26,3.803-5.821,6.578-7.695c2.775-1.87,5.811-2.806,9.107-2.806
		c2.055,0,4.012,0.423,5.874,1.262c1.857,0.845,3.383,2.096,4.57,3.756c0.147-1.337,0.723-2.434,1.728-3.29
		c1.005-0.853,2.175-1.28,3.513-1.28c2.33,0,3.79,0.66,4.386,1.988C266.83,27.253,267.126,28.979,267.126,31.111z M239.026,44.729
		c0,1.866,0.329,3.645,0.984,5.348c0.657,1.697,1.634,3.076,2.938,4.131c1.299,1.056,2.879,1.581,4.739,1.581
		c2.673,0,4.755-1.111,6.243-3.331c1.489-2.223,2.23-4.796,2.23-7.729c0-1.835-0.315-3.613-0.947-5.339s-1.599-3.136-2.898-4.227
		c-1.301-1.09-2.845-1.638-4.627-1.638c-1.836,0-3.415,0.541-4.739,1.62c-1.328,1.08-2.313,2.488-2.956,4.226
		C239.349,41.108,239.026,42.895,239.026,44.729z"/>
	<path fill="#919192" d="M276.23,59.246V30.033c0-1.808,0.502-3.278,1.507-4.405c1.001-1.128,2.322-1.689,3.957-1.689
		c1.412,0,2.56,0.358,3.437,1.075c0.881,0.722,1.418,1.711,1.621,2.975c2.129-2.999,5.648-4.497,10.555-4.497
		c2.871,0,5.449,0.59,7.729,1.766c2.278,1.175,4.062,2.876,5.352,5.092c1.288,2.218,1.934,4.849,1.934,7.898v20.999
		c0,1.189-0.237,2.25-0.706,3.18c-0.473,0.928-1.13,1.648-1.97,2.153c-0.845,0.509-1.786,0.761-2.826,0.761
		c-1.636,0-2.956-0.562-3.957-1.689c-1.007-1.127-1.508-2.596-1.508-4.404V40.142c0-2.45-0.663-4.315-1.989-5.592
		c-1.326-1.277-3.053-1.917-5.183-1.917c-1.438,0-2.689,0.33-3.754,0.985c-1.067,0.657-1.872,1.546-2.417,2.657
		c-0.546,1.115-0.818,2.407-0.818,3.866v19.104c0,1.189-0.237,2.25-0.706,3.18c-0.472,0.928-1.127,1.648-1.968,2.153
		c-0.847,0.509-1.784,0.761-2.826,0.761c-1.635,0-2.956-0.562-3.957-1.689C276.733,62.523,276.23,61.055,276.23,59.246z"/>
	<path fill="#919192" d="M354.287,48.319h-23.341c0.37,2.603,1.51,4.571,3.419,5.911c1.908,1.338,4.212,2.006,6.912,2.006
		c1.66,0,3.072-0.261,4.24-0.781c1.164-0.519,2.619-1.258,4.367-2.212c1.746-0.954,3.018-1.431,3.811-1.431
		c0.74,0,1.465,0.23,2.172,0.688c0.707,0.46,1.273,1.048,1.693,1.767c0.418,0.718,0.631,1.474,0.631,2.267
		c0,1.138-0.527,2.268-1.582,3.383c-1.051,1.114-2.449,2.111-4.197,2.992c-1.746,0.881-3.719,1.584-5.908,2.116
		c-2.195,0.535-4.272,0.802-6.229,0.802c-3.99,0-7.556-0.91-10.705-2.734c-3.146-1.821-5.573-4.336-7.282-7.543
		c-1.71-3.207-2.567-6.821-2.567-10.835c0-2.727,0.49-5.378,1.468-7.954c0.979-2.576,2.344-4.867,4.088-6.875
		c1.749-2.007,3.84-3.575,6.283-4.703c2.439-1.127,5.05-1.69,7.823-1.69c2.849,0,5.507,0.59,7.974,1.766
		c2.465,1.175,4.553,2.731,6.264,4.664c1.707,1.933,3.043,4.082,4.012,6.448c0.967,2.368,1.451,4.717,1.451,7.044
		C359.084,46.686,357.486,48.319,354.287,48.319z M330.687,40.996h17.432c-0.297-2.501-1.215-4.52-2.752-6.058
		c-1.536-1.536-3.53-2.306-5.984-2.306c-2.353,0-4.313,0.78-5.872,2.343C331.949,36.536,331.008,38.544,330.687,40.996z"/>
	<path fill="#919192" d="M428.141,31.111v27.097c0,2.13-0.295,3.85-0.891,5.164c-0.594,1.314-2.061,1.968-4.387,1.968
		c-1.484,0-2.633-0.387-3.439-1.164c-0.805-0.773-1.406-1.931-1.801-3.459c-2.9,3.406-6.381,5.109-10.443,5.109
		c-3.371,0-6.445-0.905-9.219-2.715c-2.773-1.809-4.951-4.317-6.523-7.526s-2.359-6.832-2.359-10.871
		c0-3.891,0.805-7.464,2.416-10.722c1.611-3.26,3.807-5.821,6.58-7.695c2.771-1.87,5.811-2.806,9.105-2.806
		c2.055,0,4.014,0.423,5.871,1.262c1.857,0.845,3.383,2.096,4.572,3.756c0.146-1.337,0.727-2.434,1.725-3.29
		c1.01-0.853,2.176-1.28,3.516-1.28c2.326,0,3.793,0.66,4.387,1.988C427.846,27.253,428.141,28.979,428.141,31.111z M400.045,44.729
		c0,1.866,0.324,3.645,0.982,5.348c0.654,1.697,1.637,3.076,2.938,4.131c1.299,1.056,2.879,1.581,4.736,1.581
		c2.678,0,4.762-1.111,6.244-3.331c1.488-2.223,2.232-4.796,2.232-7.729c0-1.835-0.316-3.613-0.947-5.339
		c-0.635-1.726-1.6-3.136-2.9-4.227c-1.301-1.09-2.846-1.638-4.629-1.638c-1.832,0-3.414,0.541-4.736,1.62
		c-1.33,1.08-2.314,2.488-2.957,4.226C400.363,41.108,400.045,42.895,400.045,44.729z"/>
	<path fill="#919192" d="M443.49,30.529c0.762-1.446,1.812-2.667,3.158-3.654c1.346-0.989,2.828-1.728,4.457-2.208
		c1.621-0.482,3.295-0.724,5.021-0.724c1.369,0,2.854,0.179,4.451,0.532c1.6,0.358,3.086,0.853,4.455,1.485
		c1.369,0.635,2.473,1.396,3.311,2.281c0.838,0.89,1.254,1.844,1.254,2.857c0,0.759-0.264,1.405-0.797,1.942
		c-0.533,0.529-1.281,0.796-2.244,0.796c-0.51,0-0.977-0.112-1.41-0.34c-0.434-0.229-1.002-0.597-1.713-1.106
		c-1.064-0.807-2.133-1.459-3.197-1.939c-1.066-0.48-2.436-0.723-4.109-0.723c-2.031,0-3.719,0.443-5.062,1.329
		c-1.348,0.891-2.018,2.146-2.018,3.771c0,1.371,0.711,2.498,2.131,3.388c1.418,0.889,3.629,1.916,6.623,3.082
		c1.98,0.762,3.654,1.461,5.023,2.094c1.369,0.635,2.65,1.382,3.846,2.245c1.191,0.864,2.158,1.894,2.895,3.084
		c0.732,1.192,1.1,2.576,1.1,4.149c0,4.008-1.445,7.091-4.336,9.246c-2.895,2.16-6.367,3.234-10.432,3.234
		c-2.078,0-4.045-0.227-5.898-0.684c-1.852-0.459-3.475-1.066-4.871-1.828c-1.398-0.76-2.486-1.598-3.273-2.51
		c-0.789-0.913-1.178-1.799-1.178-2.663c0-0.868,0.268-1.587,0.797-2.174c0.535-0.581,1.18-0.872,1.941-0.872
		c0.76,0,1.959,0.559,3.576,1.674c1.422,1.016,2.818,1.815,4.188,2.397c1.371,0.586,3.021,0.875,4.949,0.875
		c2.334,0,4.225-0.56,5.67-1.675s2.17-2.385,2.17-3.805c0-1.626-0.775-2.955-2.322-3.997c-1.549-1.037-3.896-2.22-7.043-3.536
		c-1.977-0.815-3.602-1.525-4.869-2.134c-1.27-0.611-2.475-1.333-3.617-2.17c-1.141-0.838-2.055-1.829-2.738-2.97
		c-0.686-1.14-1.027-2.446-1.027-3.919C442.35,33.586,442.729,31.976,443.49,30.529z"/>
	<path fill="#919192" d="M516.812,62.08c0,1.066-0.33,1.877-0.988,2.434c-0.66,0.56-1.373,0.838-2.131,0.838
		c-0.812,0-1.539-0.278-2.172-0.838c-0.635-0.557-0.947-1.367-0.947-2.434v-2.816h-0.154c-2.842,4.06-6.521,6.088-11.039,6.088
		c-2.787,0-5.291-0.557-7.5-1.674c-2.203-1.117-4.084-2.651-5.631-4.605c-1.547-1.951-2.713-4.173-3.5-6.659
		c-0.789-2.486-1.18-5.073-1.18-7.765c0-2.69,0.391-5.276,1.18-7.765c0.787-2.486,1.953-4.706,3.5-6.659
		c1.547-1.952,3.428-3.49,5.631-4.607c2.209-1.114,4.713-1.674,7.5-1.674c2.234,0,4.227,0.445,5.979,1.332
		c1.752,0.888,3.434,2.245,5.061,4.074h0.154v-2.133c0-1.064,0.312-1.878,0.947-2.434c0.633-0.56,1.359-0.84,2.172-0.84
		c0.758,0,1.471,0.28,2.131,0.84c0.658,0.556,0.988,1.369,0.988,2.434V62.08z M488.877,49.978c0.404,1.724,1.055,3.324,1.939,4.796
		c0.887,1.471,2.041,2.639,3.465,3.5c1.422,0.862,3.117,1.294,5.1,1.294c1.979,0,3.68-0.432,5.102-1.294
		c1.42-0.861,2.572-2.029,3.463-3.5c0.887-1.472,1.531-3.072,1.945-4.796c0.398-1.726,0.604-3.502,0.604-5.329
		s-0.205-3.604-0.604-5.327c-0.414-1.724-1.059-3.324-1.945-4.796c-0.891-1.473-2.043-2.639-3.463-3.504
		c-1.422-0.86-3.123-1.292-5.102-1.292c-1.982,0-3.678,0.432-5.1,1.292c-1.424,0.865-2.578,2.031-3.465,3.504
		c-0.885,1.472-1.535,3.072-1.939,4.796c-0.406,1.724-0.607,3.5-0.607,5.327S488.471,48.252,488.877,49.978z"/>
	<path fill="#919192" d="M556.396,39.092c0-2.892-0.76-5.177-2.283-6.852c-1.521-1.674-3.654-2.511-6.393-2.511
		c-2.691,0-4.797,0.837-6.322,2.511c-1.52,1.675-2.281,3.96-2.281,6.852v22.684c0,1.115-0.303,1.99-0.914,2.625
		c-0.607,0.635-1.418,0.951-2.434,0.951s-1.828-0.316-2.436-0.951c-0.609-0.635-0.916-1.51-0.916-2.625V27.521
		c0-1.117,0.307-1.99,0.916-2.625c0.607-0.635,1.42-0.952,2.436-0.952s1.826,0.317,2.434,0.952c0.611,0.635,0.914,1.508,0.914,2.625
		v1.218l0.148,0.153c1.121-1.472,2.428-2.666,3.928-3.577c1.49-0.914,3.584-1.371,6.277-1.371c2.18,0,4.225,0.532,6.127,1.599
		c1.902,1.064,3.564,2.818,4.988,5.254c1.568-2.287,3.334-4,5.285-5.138c1.957-1.142,4.328-1.715,7.119-1.715
		c1.674,0,3.326,0.28,4.947,0.84c1.627,0.556,3.135,1.442,4.529,2.663c1.396,1.217,2.512,2.814,3.35,4.794
		c0.836,1.979,1.256,4.339,1.256,7.081v22.454c0,1.115-0.303,1.99-0.914,2.625c-0.607,0.635-1.418,0.951-2.436,0.951
		c-1.014,0-1.826-0.316-2.436-0.951c-0.605-0.635-0.912-1.51-0.912-2.625V39.092c0-2.892-0.758-5.177-2.285-6.852
		c-1.521-1.674-3.652-2.511-6.391-2.511c-2.689,0-4.797,0.837-6.322,2.511c-1.52,1.675-2.279,3.96-2.279,6.852v22.684
		c0,1.115-0.305,1.99-0.914,2.625s-1.424,0.951-2.438,0.951c-1.012,0-1.83-0.316-2.434-0.951c-0.609-0.635-0.916-1.51-0.916-2.625
		V39.092z"/>
	<path fill="#919192" d="M600.863,27.521c0-1.117,0.305-1.99,0.916-2.625c0.609-0.635,1.418-0.952,2.436-0.952
		c1.014,0,1.826,0.317,2.436,0.952c0.607,0.635,0.912,1.508,0.912,2.625V29.5h0.154c1.926-3.703,5.529-5.557,10.809-5.557
		c2.689,0,5.115,0.56,7.268,1.674c2.16,1.117,3.973,2.655,5.445,4.607c1.469,1.953,2.598,4.173,3.387,6.659
		c0.787,2.488,1.178,5.074,1.178,7.765c0,2.691-0.377,5.278-1.141,7.765c-0.76,2.486-1.902,4.708-3.424,6.659
		c-1.521,1.954-3.35,3.488-5.48,4.605s-4.543,1.674-7.232,1.674c-2.436,0-4.594-0.545-6.467-1.637
		c-1.883-1.09-3.326-2.371-4.342-3.844h-0.154V77.76c0,1.115-0.305,1.992-0.912,2.625c-0.609,0.639-1.422,0.954-2.436,0.954
		c-1.018,0-1.826-0.315-2.436-0.954c-0.611-0.633-0.916-1.51-0.916-2.625V27.521z M607.486,49.978
		c0.406,1.724,1.055,3.324,1.941,4.796c0.889,1.471,2.041,2.639,3.467,3.5c1.418,0.862,3.119,1.294,5.098,1.294
		c1.98,0,3.678-0.432,5.102-1.294c1.42-0.861,2.574-2.029,3.463-3.5c0.889-1.472,1.533-3.072,1.939-4.796
		c0.406-1.726,0.607-3.502,0.607-5.329s-0.201-3.604-0.607-5.327s-1.051-3.324-1.939-4.796c-0.889-1.473-2.043-2.639-3.463-3.504
		c-1.424-0.86-3.121-1.292-5.102-1.292c-1.979,0-3.68,0.432-5.098,1.292c-1.426,0.865-2.578,2.031-3.467,3.504
		c-0.887,1.472-1.535,3.072-1.941,4.796c-0.408,1.724-0.609,3.5-0.609,5.327S607.078,48.252,607.486,49.978z"/>
	<path fill="#919192" d="M681.566,62.08c0,1.066-0.328,1.877-0.986,2.434c-0.66,0.56-1.371,0.838-2.135,0.838
		c-0.809,0-1.533-0.278-2.168-0.838c-0.637-0.557-0.951-1.367-0.951-2.434v-2.816h-0.154c-2.84,4.06-6.52,6.088-11.035,6.088
		c-2.791,0-5.291-0.557-7.5-1.674c-2.203-1.117-4.082-2.651-5.631-4.605c-1.549-1.951-2.715-4.173-3.5-6.659
		c-0.789-2.486-1.182-5.073-1.182-7.765c0-2.69,0.393-5.276,1.182-7.765c0.785-2.486,1.951-4.706,3.5-6.659
		c1.549-1.952,3.428-3.49,5.631-4.607c2.209-1.114,4.709-1.674,7.5-1.674c2.23,0,4.225,0.445,5.975,1.332
		c1.752,0.888,3.436,2.245,5.061,4.074h0.154v-2.133c0-1.064,0.314-1.878,0.951-2.434c0.635-0.56,1.359-0.84,2.168-0.84
		c0.764,0,1.475,0.28,2.135,0.84c0.658,0.556,0.986,1.369,0.986,2.434V62.08z M653.633,49.978c0.402,1.724,1.051,3.324,1.938,4.796
		c0.887,1.471,2.047,2.639,3.467,3.5c1.42,0.862,3.119,1.294,5.1,1.294c1.977,0,3.678-0.432,5.1-1.294
		c1.42-0.861,2.572-2.029,3.463-3.5c0.887-1.472,1.533-3.072,1.943-4.796c0.404-1.726,0.607-3.502,0.607-5.329
		s-0.203-3.604-0.607-5.327c-0.41-1.724-1.057-3.324-1.943-4.796c-0.891-1.473-2.043-2.639-3.463-3.504
		c-1.422-0.86-3.123-1.292-5.1-1.292c-1.98,0-3.68,0.432-5.1,1.292c-1.42,0.865-2.58,2.031-3.467,3.504
		c-0.887,1.472-1.535,3.072-1.938,4.796c-0.408,1.724-0.611,3.5-0.611,5.327S653.225,48.252,653.633,49.978z"/>
	<g>
		<path fill="#919192" d="M380.305,27.925c-0.471-0.93-1.123-1.648-1.953-2.157c-0.826-0.506-1.779-0.763-2.844-0.763
			c-1.635,0-2.953,0.563-3.955,1.693c-0.629,0.701-1.033,1.555-1.27,2.522c-0.156,0.249-0.246,0.54-0.246,0.843v34.431
			c0,5.743-3.414,8.406-6.66,8.406c-1.748,0-3.053-0.609-4.053-1.351l-1.939-2.132c-1.092-1.197-2.289-1.857-3.602-1.979
			c-1.311-0.124-2.5,0.301-3.564,1.271c-0.682,0.619-1.145,1.346-1.395,2.18c-0.246,0.832-0.244,1.693,0.01,2.59
			c0.254,0.892,0.715,1.711,1.395,2.455l0.924,1.017c0.234,0.278,0.523,0.597,0.861,0.944l0.322,0.354l0.02-0.018
			c2.041,1.971,5.668,4.484,11.191,4.484c9.736,0,17.473-6.654,17.473-18.223V30.063c0-0.297-0.084-0.578-0.236-0.822
			C380.664,28.775,380.512,28.336,380.305,27.925z"/>
		<path fill="#919192" d="M375.143,18.972c1.713,0,3.166-0.624,4.369-1.876c1.201-1.251,1.805-2.73,1.805-4.443
			c0-1.014-0.287-1.986-0.857-2.914c-0.572-0.932-1.324-1.681-2.268-2.25c-0.941-0.57-1.955-0.856-3.049-0.856
			c-1.611,0-3.039,0.612-4.289,1.839c-1.254,1.229-1.879,2.621-1.879,4.182c0,1.638,0.625,3.099,1.879,4.389
			C372.104,18.329,373.531,18.972,375.143,18.972z"/>
	</g>
	<g opacity="0.6">
		<path fill="#919192" d="M97.43,29.17v0.653c0,1.337-0.984,2.419-2.197,2.419c-1.213,0-2.197-1.082-2.197-2.419V29.17
			c0-0.556-0.411-1.011-0.919-1.011c-1.213,0-2.215-1.083-2.215-2.418c0-1.337,0.966-2.421,2.179-2.421h0.036
			C95.047,23.32,97.43,25.943,97.43,29.17z M92.405,65.482h-0.592c-1.213,0-2.199-1.086-2.199-2.42c0-1.338,0.986-2.421,2.199-2.421
			h0.592c0.505,0,0.916-0.454,0.916-1.011c0-1.336,0.986-2.441,2.197-2.441c1.213,0,2.197,1.065,2.197,2.4v0.041
			C97.715,62.857,95.333,65.482,92.405,65.482z M60.544,23.306h0.591c1.213,0,2.196,1.083,2.196,2.42s-0.983,2.421-2.196,2.421
			h-0.591c-0.508,0-0.918,0.452-0.918,1.012c0,1.337-0.983,2.438-2.196,2.438c-1.213,0-2.197-1.061-2.197-2.399v-0.038
			C55.232,25.929,57.616,23.306,60.544,23.306z M55.58,59.678v-0.651c0-1.337,0.986-2.423,2.197-2.423
			c1.215,0,2.199,1.086,2.199,2.423v0.651c0,0.557,0.411,1.009,0.917,1.011c1.213-0.002,2.213,1.083,2.213,2.421
			c0,1.336-0.962,2.418-2.179,2.418h-0.034C57.962,65.527,55.58,62.902,55.58,59.678z M59.635,36.523v4.9
			c0,1.086-0.986,1.965-2.199,1.965c-1.212,0-2.198-0.879-2.198-1.965v-4.9c0-1.086,0.986-1.961,2.198-1.961
			C58.649,34.562,59.635,35.438,59.635,36.523z M59.635,47.871v4.9c0,1.084-0.986,1.963-2.199,1.963
			c-1.212,0-2.198-0.879-2.198-1.963v-4.9c0-1.084,0.986-1.963,2.198-1.963C58.649,45.908,59.635,46.787,59.635,47.871z
			 M97.481,36.523v4.9c0,1.086-0.982,1.965-2.195,1.965s-2.198-0.879-2.198-1.965v-4.9c0-1.086,0.985-1.961,2.198-1.961
			S97.481,35.438,97.481,36.523z M97.481,47.871v4.9c0,1.084-0.982,1.963-2.195,1.963s-2.198-0.879-2.198-1.963v-4.9
			c0-1.084,0.985-1.963,2.198-1.963S97.481,46.787,97.481,47.871z"/>
		<path fill="#919192" d="M68.256,61.143h4.9c1.083,0,1.962,0.982,1.962,2.197c0,1.211-0.879,2.199-1.962,2.199h-4.9
			c-1.085,0-1.964-0.988-1.964-2.199C66.292,62.125,67.17,61.143,68.256,61.143z"/>
		<path fill="#919192" d="M79.938,61.143h4.901c1.085,0,1.965,0.982,1.965,2.197c0,1.211-0.88,2.199-1.965,2.199h-4.901
			c-1.081,0-1.962-0.988-1.962-2.199C77.976,62.125,78.857,61.143,79.938,61.143z"/>
		<path fill="#919192" d="M68.256,23.292h4.9c1.083,0,1.962,0.984,1.962,2.197c0,1.215-0.879,2.201-1.962,2.201h-4.9
			c-1.085,0-1.964-0.986-1.964-2.201C66.292,24.276,67.17,23.292,68.256,23.292z"/>
		<path fill="#919192" d="M79.938,23.292h4.901c1.085,0,1.965,0.984,1.965,2.197c0,1.215-0.88,2.201-1.965,2.201h-4.901
			c-1.081,0-1.962-0.986-1.962-2.201C77.976,24.276,78.857,23.292,79.938,23.292z"/>
	</g>
	<g opacity="0.3">
		<path fill="#919192" d="M44.971,29.17v0.653c0,1.337-0.982,2.419-2.196,2.419c-1.213,0-2.197-1.082-2.197-2.419V29.17
			c0-0.556-0.41-1.011-0.919-1.011c-1.211,0-2.212-1.083-2.212-2.418c0-1.337,0.963-2.421,2.176-2.421h0.036
			C42.59,23.32,44.971,25.943,44.971,29.17z M39.947,65.482h-0.591c-1.214,0-2.199-1.086-2.199-2.42
			c0-1.338,0.985-2.421,2.199-2.421h0.591c0.506,0,0.916-0.454,0.916-1.011c0-1.336,0.986-2.441,2.197-2.441
			c1.215,0,2.199,1.065,2.199,2.4v0.041C45.259,62.857,42.875,65.482,39.947,65.482z M8.087,23.306h0.59
			c1.213,0,2.196,1.083,2.196,2.42s-0.983,2.421-2.196,2.421h-0.59c-0.507,0-0.917,0.452-0.917,1.012
			c0,1.337-0.986,2.438-2.199,2.438c-1.211,0-2.195-1.061-2.195-2.399v-0.038C2.777,25.929,5.159,23.306,8.087,23.306z
			 M3.124,59.678l-0.001-0.651c0.001-1.337,0.986-2.423,2.199-2.423s2.197,1.086,2.197,2.423v0.651c0,0.557,0.41,1.009,0.915,1.011
			c1.214-0.002,2.215,1.083,2.215,2.421c0,1.336-0.963,2.418-2.179,2.418H8.434C5.505,65.527,3.123,62.902,3.124,59.678z
			 M7.178,36.523v4.9c0,1.086-0.984,1.965-2.199,1.965c-1.212,0-2.198-0.879-2.198-1.965v-4.9c0-1.086,0.986-1.961,2.198-1.961
			C6.193,34.562,7.178,35.438,7.178,36.523z M7.178,47.871v4.9c0,1.084-0.984,1.963-2.199,1.963c-1.212,0-2.198-0.879-2.198-1.963
			v-4.9c0-1.084,0.986-1.963,2.198-1.963C6.193,45.908,7.178,46.787,7.178,47.871z M45.026,36.523v4.9
			c0,1.086-0.986,1.965-2.199,1.965s-2.199-0.879-2.199-1.965v-4.9c0-1.086,0.986-1.961,2.199-1.961S45.026,35.438,45.026,36.523z
			 M45.026,47.871v4.9c0,1.084-0.986,1.963-2.199,1.963s-2.199-0.879-2.199-1.963v-4.9c0-1.084,0.986-1.963,2.199-1.963
			S45.026,46.787,45.026,47.871z"/>
		<path fill="#919192" d="M15.798,61.143h4.9c1.083,0,1.964,0.982,1.964,2.197c0,1.211-0.88,2.199-1.964,2.199h-4.9
			c-1.083,0-1.961-0.988-1.961-2.199C13.837,62.125,14.715,61.143,15.798,61.143z"/>
		<path fill="#919192" d="M27.483,61.143h4.899c1.085,0,1.964,0.982,1.964,2.197c0,1.211-0.879,2.199-1.964,2.199h-4.899
			c-1.085,0-1.965-0.988-1.965-2.199C25.518,62.125,26.398,61.143,27.483,61.143z"/>
		<path fill="#919192" d="M15.798,23.292h4.9c1.083,0,1.964,0.984,1.964,2.197c0,1.215-0.88,2.201-1.964,2.201h-4.9
			c-1.083,0-1.961-0.986-1.961-2.201C13.837,24.276,14.715,23.292,15.798,23.292z"/>
		<path fill="#919192" d="M27.483,23.292h4.899c1.085,0,1.964,0.984,1.964,2.197c0,1.215-0.879,2.201-1.964,2.201h-4.899
			c-1.085,0-1.965-0.986-1.965-2.201C25.518,24.276,26.398,23.292,27.483,23.292z"/>
	</g>
	<g>
		<path fill="#919192" d="M150.236,29.17v0.653c0,1.337-0.983,2.419-2.196,2.419c-1.214,0-2.198-1.082-2.198-2.419V29.17
			c0-0.556-0.409-1.011-0.918-1.011c-1.21,0-2.212-1.083-2.212-2.418c0-1.337,0.966-2.421,2.176-2.421h0.036
			C147.855,23.32,150.236,25.943,150.236,29.17z M145.212,65.482h-0.591c-1.214,0-2.199-1.086-2.199-2.42
			c0-1.338,0.985-2.421,2.199-2.421h0.591c0.507,0,0.919-0.454,0.919-1.011c0-1.336,0.982-2.441,2.195-2.441
			c1.214,0,2.198,1.065,2.198,2.4v0.041C150.524,62.857,148.141,65.482,145.212,65.482z M113.353,23.306h0.59
			c1.213,0,2.197,1.083,2.197,2.42s-0.984,2.421-2.197,2.421h-0.59c-0.507,0-0.918,0.452-0.918,1.012
			c0,1.337-0.985,2.438-2.198,2.438c-1.209,0-2.194-1.061-2.194-2.399v-0.038C108.042,25.929,110.424,23.306,113.353,23.306z
			 M108.39,59.678l-0.001-0.651c0.001-1.337,0.985-2.423,2.199-2.423c1.213,0,2.196,1.086,2.196,2.423v0.651
			c0,0.557,0.411,1.009,0.916,1.011c1.213-0.002,2.217,1.083,2.217,2.421c0,1.336-0.966,2.418-2.179,2.418H113.7
			C110.772,65.527,108.389,62.902,108.39,59.678z M112.443,36.523v4.9c0,1.086-0.984,1.965-2.197,1.965s-2.199-0.879-2.199-1.965
			v-4.9c0-1.086,0.986-1.961,2.199-1.961S112.443,35.438,112.443,36.523z M112.443,47.871v4.9c0,1.084-0.984,1.963-2.197,1.963
			s-2.199-0.879-2.199-1.963v-4.9c0-1.084,0.986-1.963,2.199-1.963S112.443,46.787,112.443,47.871z M150.292,36.523v4.9
			c0,1.086-0.985,1.965-2.199,1.965c-1.213,0-2.196-0.879-2.196-1.965v-4.9c0-1.086,0.983-1.961,2.196-1.961
			C149.306,34.562,150.292,35.438,150.292,36.523z M150.292,47.871v4.9c0,1.084-0.985,1.963-2.199,1.963
			c-1.213,0-2.196-0.879-2.196-1.963v-4.9c0-1.084,0.983-1.963,2.196-1.963C149.306,45.908,150.292,46.787,150.292,47.871z"/>
		<path fill="#919192" d="M121.064,61.143h4.899c1.084,0,1.965,0.982,1.965,2.197c0,1.211-0.881,2.199-1.965,2.199h-4.899
			c-1.084,0-1.963-0.988-1.963-2.199C119.102,62.125,119.98,61.143,121.064,61.143z"/>
		<path fill="#919192" d="M132.748,61.143h4.902c1.084,0,1.963,0.982,1.963,2.197c0,1.211-0.879,2.199-1.963,2.199h-4.902
			c-1.084,0-1.961-0.988-1.961-2.199C130.786,62.125,131.663,61.143,132.748,61.143z"/>
		<path fill="#919192" d="M121.064,23.292h4.899c1.084,0,1.965,0.984,1.965,2.197c0,1.215-0.881,2.201-1.965,2.201h-4.899
			c-1.084,0-1.963-0.986-1.963-2.201C119.102,24.276,119.98,23.292,121.064,23.292z"/>
		<path fill="#919192" d="M132.748,23.292h4.902c1.084,0,1.963,0.984,1.963,2.197c0,1.215-0.879,2.201-1.963,2.201h-4.902
			c-1.084,0-1.961-0.986-1.961-2.201C130.786,24.276,131.663,23.292,132.748,23.292z"/>
	</g>
	<g>
		<path fill="#919192" d="M119.769,37.616c-0.279-0.051-0.562-0.019-0.85,0.092c-0.444,0.175-0.744,0.468-0.898,0.877
			c-0.154,0.413-0.131,0.867,0.06,1.355l4.805,12.308c0.193,0.496,0.486,0.841,0.874,1.034c0.391,0.193,0.806,0.201,1.249,0.03
			c0.284-0.11,0.512-0.277,0.686-0.505c0.175-0.226,0.276-0.494,0.302-0.798c0.029-0.307-0.016-0.612-0.138-0.922l-4.804-12.308
			c-0.126-0.323-0.304-0.586-0.528-0.789C120.301,37.791,120.047,37.665,119.769,37.616z"/>
		<path fill="#919192" d="M124.447,48.417c-0.534,0.678-1.03,1.357-1.515,2.036l1.118,2.857l1.757-0.688
			c0.431-0.609,0.888-1.231,1.376-1.851c3.843-4.883,7.938-7.996,9.15-6.954l4.311-5.479
			C137.919,35.993,130.667,40.506,124.447,48.417z"/>
	</g>
</g>
</svg>
