<?xml version="1.0" encoding="utf-8"?>
<!-- Generator: Adobe Illustrator 16.0.0, SVG Export Plug-In . SVG Version: 6.00 Build 0)  -->
<!DOCTYPE svg PUBLIC "-//W3C//DTD SVG 1.1//EN" "http://www.w3.org/Graphics/SVG/1.1/DTD/svg11.dtd">
<svg version="1.1" id="Layer_2" xmlns="http://www.w3.org/2000/svg" xmlns:xlink="http://www.w3.org/1999/xlink" x="0px" y="0px"
     width="56.031px" height="57.689px" viewBox="0 0 56.031 57.689" enable-background="new 0 0 56.031 57.689" xml:space="preserve">
<g>
    <g>
        <path fill="#ccc" d="M28.017,56.623c-1.916,0-3.473-1.555-3.473-3.469c0-1.92,1.557-3.474,3.473-3.474
            c1.912,0,3.469,1.554,3.469,3.474C31.485,55.068,29.929,56.623,28.017,56.623z"/>
        <path fill="#ccc" d="M35.884,48.756c-1.916,0-3.469-1.554-3.469-3.477c0-1.915,1.553-3.474,3.469-3.474
            c1.924,0,3.477,1.559,3.477,3.474C39.36,47.203,37.808,48.756,35.884,48.756z"/>
        <path fill="#ccc" d="M43.763,40.878c-1.922,0-3.473-1.554-3.473-3.469c0-1.919,1.551-3.473,3.473-3.473
            c1.912,0,3.471,1.554,3.471,3.473C47.233,39.325,45.675,40.878,43.763,40.878z"/>
        <path fill="#ccc" d="M51.632,33.013c-1.916,0-3.471-1.559-3.471-3.478c0-1.915,1.555-3.469,3.471-3.469
            c1.918,0,3.471,1.554,3.471,3.469C55.103,31.455,53.55,33.013,51.632,33.013z"/>
        <path fill="#ccc" d="M23.618,45.28c0,1.923-1.557,3.477-3.473,3.477c-1.918,0-3.471-1.554-3.471-3.477
            c0-1.915,1.553-3.474,3.471-3.474C22.062,41.806,23.618,43.365,23.618,45.28z"/>
        <path fill="#ccc" d="M15.745,37.41c0,1.915-1.555,3.469-3.477,3.469c-1.912,0-3.471-1.554-3.471-3.469
            c0-1.919,1.559-3.473,3.471-3.473C14.19,33.937,15.745,35.491,15.745,37.41z"/>
        <path fill="#ccc" d="M7.87,29.536c0,1.919-1.557,3.478-3.471,3.478c-1.918,0-3.471-1.559-3.471-3.478
            c0-1.915,1.553-3.469,3.471-3.469C6.313,26.067,7.87,27.621,7.87,29.536z"/>
    </g>
    <g>
        <path fill="#ccc" d="M28.017,31.623c-1.916,0-3.473-1.555-3.473-3.469c0-1.92,1.557-3.474,3.473-3.474
            c1.912,0,3.469,1.554,3.469,3.474C31.485,30.068,29.929,31.623,28.017,31.623z"/>
        <path fill="#ccc" d="M35.884,23.756c-1.916,0-3.469-1.554-3.469-3.477c0-1.915,1.553-3.474,3.469-3.474
            c1.924,0,3.477,1.559,3.477,3.474C39.36,22.203,37.808,23.756,35.884,23.756z"/>
        <path fill="#ccc" d="M43.763,15.878c-1.922,0-3.473-1.554-3.473-3.469c0-1.919,1.551-3.473,3.473-3.473
            c1.912,0,3.471,1.554,3.471,3.473C47.233,14.325,45.675,15.878,43.763,15.878z"/>
        <path fill="#ccc" d="M51.632,8.013c-1.916,0-3.471-1.559-3.471-3.478c0-1.915,1.555-3.469,3.471-3.469
            c1.918,0,3.471,1.554,3.471,3.469C55.103,6.455,53.55,8.013,51.632,8.013z"/>
        <path fill="#ccc" d="M23.618,20.28c0,1.923-1.557,3.477-3.473,3.477c-1.918,0-3.471-1.554-3.471-3.477
            c0-1.915,1.553-3.474,3.471-3.474C22.062,16.806,23.618,18.365,23.618,20.28z"/>
        <path fill="#ccc" d="M15.745,12.41c0,1.915-1.555,3.469-3.477,3.469c-1.912,0-3.471-1.554-3.471-3.469
            c0-1.919,1.559-3.473,3.471-3.473C14.19,8.937,15.745,10.491,15.745,12.41z"/>
        <path fill="#ccc" d="M7.87,4.536c0,1.919-1.557,3.478-3.471,3.478c-1.918,0-3.471-1.559-3.471-3.478
            c0-1.915,1.553-3.469,3.471-3.469C6.313,1.067,7.87,2.621,7.87,4.536z"/>
    </g>
</g>
</svg>
